<?xml version="1.0" encoding="UTF-8"?>
<svg width="265.44pt" height="276.92pt" version="1.1" viewBox="0 0 265.44 276.92" xmlns="http://www.w3.org/2000/svg" xmlns:cc="http://creativecommons.org/ns#" xmlns:dc="http://purl.org/dc/elements/1.1/" xmlns:rdf="http://www.w3.org/1999/02/22-rdf-syntax-ns#">
 <metadata>
  <rdf:RDF>
   <cc:Work rdf:about="">
    <dc:format>image/svg+xml</dc:format>
    <dc:type rdf:resource="http://purl.org/dc/dcmitype/StillImage"/>
    <dc:title/>
   </cc:Work>
  </rdf:RDF>
 </metadata>
 <g transform="translate(-222.88 -132.16)">
  <path d="m256.2 392.84h200.2c0.83984 0 1.3984-0.55859 1.3984-1.3984s-0.55859-1.3984-1.3984-1.3984l-56.559-9.2383 53.48-17.641c0.83984-0.28125 1.1211-1.1211 1.1211-1.6797s-0.83984-1.3984-1.6797-1.1211l-64.398 8.9609 46.199-25.48c0.55859-0.28125 0.83984-1.1211 0.55859-1.9609-0.28125-0.83984-1.1211-1.1211-1.9609-0.83984l-65.238 23.238 24.078-38.641c0.28125-0.55859 0.28125-1.3984-0.28125-1.9609-0.55859-0.55859-1.3984-0.28125-1.9609 0.28125l-29.121 33.039 4e-3 -224.84h-11.48v224.56l-26.879-33.039c-0.55859-0.55859-1.3984-0.83984-1.9609-0.28125-0.55859 0.55859-0.83984 1.3984-0.28125 1.9609l21 38.641-62.16-23.238c-0.83984-0.28125-1.6797 0-1.9609 0.83984-0.28125 0.83984 0 1.6797 0.55859 1.9609l46.199 25.48-64.398-8.9609c-0.83984 0-1.3984 0.28125-1.6797 1.1211s0.28125 1.3984 1.1211 1.6797l53.48 17.641-56.559 9.2383c-0.83984 0-1.3984 0.83984-1.1211 1.6797 0.28125 0.83984 0.83984 1.3984 1.6797 1.3984z"/>
  <path d="m483.84 400.12h-256.48c-2.5195 0-4.4805 1.9609-4.4805 4.4805 0 2.5195 1.9609 4.4805 4.4805 4.4805h256.48c2.5195 0 4.4805-1.9609 4.4805-4.4805 0-2.2422-1.9609-4.4805-4.4805-4.4805z"/>
 </g>
</svg>
