<?xml version="1.0" encoding="UTF-8" standalone="no"?>
<svg width="482.6mm" height="457.2mm"
 viewBox="0 0 5700 5400"
 xmlns="http://www.w3.org/2000/svg" xmlns:xlink="http://www.w3.org/1999/xlink"  version="1.2" baseProfile="tiny">
<defs>
</defs>
<g fill="none" stroke="black" stroke-width="1" fill-rule="evenodd" stroke-linecap="square" stroke-linejoin="bevel" >

<g fill="#ffffff" fill-opacity="1" stroke="none" transform="matrix(1,0,0,1,0,0)"
font-family="Arial" font-size="12" font-weight="400" font-style="normal" 
>
<rect x="0" y="0" width="5700" height="5400"/>
</g>

<g fill="none" stroke="#000000" stroke-opacity="1" stroke-width="1" stroke-linecap="square" stroke-linejoin="bevel" transform="matrix(1,0,0,1,0,0)"
font-family="Arial" font-size="12" font-weight="400" font-style="normal" 
>
</g>

<g fill="#000000" fill-opacity="1" stroke="#000000" stroke-opacity="1" stroke-width="1" stroke-linecap="butt" stroke-linejoin="miter" stroke-miterlimit="2" transform="matrix(1,0,0,1,0,0)"
font-family="Arial" font-size="12" font-weight="400" font-style="normal" 
>
</g>

<g fill="#000000" fill-opacity="1" stroke="#000000" stroke-opacity="1" stroke-width="5" stroke-linecap="round" stroke-linejoin="bevel" transform="matrix(1,0,0,1,0,0)"
font-family="Arial" font-size="12" font-weight="400" font-style="normal" 
>
<polyline fill="none" vector-effect="none" points="51.3585,5064.33 124.859,5064.33 " />
<polyline fill="none" vector-effect="none" points="51.3585,4783.16 51.3585,5064.33 " />
<polyline fill="none" vector-effect="none" points="51.3585,4783.16 124.859,4783.16 " />
<polyline fill="none" vector-effect="none" points="124.859,4783.16 124.859,4513.99 " />
<polyline fill="none" vector-effect="none" points="51.3585,4513.99 124.859,4513.99 " />
<polyline fill="none" vector-effect="none" points="51.3585,4232.83 51.3585,4513.99 " />
<polyline fill="none" vector-effect="none" points="51.3585,4232.83 124.859,4232.83 " />
<polyline fill="none" vector-effect="none" points="124.859,4232.83 124.859,3963.66 " />
<polyline fill="none" vector-effect="none" points="51.3585,3963.66 124.859,3963.66 " />
<polyline fill="none" vector-effect="none" points="51.3585,3682.49 51.3585,3963.66 " />
<polyline fill="none" vector-effect="none" points="51.3585,3682.49 124.859,3682.49 " />
<polyline fill="none" vector-effect="none" points="124.859,3682.49 124.859,3413.33 " />
<polyline fill="none" vector-effect="none" points="51.3585,3413.33 124.859,3413.33 " />
<polyline fill="none" vector-effect="none" points="51.3585,3132.16 51.3585,3413.33 " />
<polyline fill="none" vector-effect="none" points="51.3585,3132.16 124.859,3132.16 " />
<polyline fill="none" vector-effect="none" points="124.859,3132.16 124.859,2859.99 " />
<polyline fill="none" vector-effect="none" points="331.692,2859.99 124.859,2859.99 " />
<polyline fill="none" vector-effect="none" points="331.692,2859.99 331.692,2787.99 " />
<polyline fill="none" vector-effect="none" points="331.692,2787.99 124.859,2787.99 " />
<polyline fill="none" vector-effect="none" points="124.859,2787.99 124.859,2541.99 " />
<polyline fill="none" vector-effect="none" points="51.3585,2541.99 124.859,2541.99 " />
<polyline fill="none" vector-effect="none" points="51.3585,2286.99 51.3585,2541.99 " />
<polyline fill="none" vector-effect="none" points="51.3585,2286.99 124.859,2286.99 " />
<polyline fill="none" vector-effect="none" points="124.859,2286.99 124.859,2043.99 " />
<polyline fill="none" vector-effect="none" points="51.3585,2043.99 124.859,2043.99 " />
<polyline fill="none" vector-effect="none" points="51.3585,1788.99 51.3585,2043.99 " />
<polyline fill="none" vector-effect="none" points="51.3585,1788.99 124.859,1788.99 " />
<polyline fill="none" vector-effect="none" points="124.859,1788.99 124.859,1545.99 " />
<polyline fill="none" vector-effect="none" points="51.3585,1545.99 124.859,1545.99 " />
<polyline fill="none" vector-effect="none" points="51.3585,1290.99 51.3585,1545.99 " />
<polyline fill="none" vector-effect="none" points="51.3585,1290.99 124.859,1290.99 " />
<polyline fill="none" vector-effect="none" points="124.859,1290.99 124.859,1047.99 " />
<polyline fill="none" vector-effect="none" points="51.3585,1047.99 124.859,1047.99 " />
<polyline fill="none" vector-effect="none" points="51.3585,792.994 51.3585,1047.99 " />
<polyline fill="none" vector-effect="none" points="51.3585,792.994 124.859,792.994 " />
<polyline fill="none" vector-effect="none" points="124.859,792.994 124.859,549.994 " />
<polyline fill="none" vector-effect="none" points="51.3585,549.994 124.859,549.994 " />
<polyline fill="none" vector-effect="none" points="51.3585,294.994 51.3585,549.994 " />
<polyline fill="none" vector-effect="none" points="51.3585,294.994 124.859,294.994 " />
<polyline fill="none" vector-effect="none" points="124.859,294.994 124.859,122.494 " />
<polyline fill="none" vector-effect="none" points="388.859,122.494 124.859,122.494 " />
<polyline fill="none" vector-effect="none" points="388.859,122.494 388.859,48.9942 " />
<polyline fill="none" vector-effect="none" points="661.859,48.9942 388.859,48.9942 " />
<polyline fill="none" vector-effect="none" points="661.859,122.494 661.859,48.9942 " />
<polyline fill="none" vector-effect="none" points="922.859,122.494 661.859,122.494 " />
<polyline fill="none" vector-effect="none" points="922.859,122.494 922.859,48.9942 " />
<polyline fill="none" vector-effect="none" points="1195.86,48.9942 922.859,48.9942 " />
<polyline fill="none" vector-effect="none" points="1195.86,122.494 1195.86,48.9942 " />
<polyline fill="none" vector-effect="none" points="1456.86,122.494 1195.86,122.494 " />
<polyline fill="none" vector-effect="none" points="1456.86,122.494 1456.86,48.9942 " />
<polyline fill="none" vector-effect="none" points="1729.86,48.9942 1456.86,48.9942 " />
<polyline fill="none" vector-effect="none" points="1729.86,122.494 1729.86,48.9942 " />
<polyline fill="none" vector-effect="none" points="1990.86,122.494 1729.86,122.494 " />
<polyline fill="none" vector-effect="none" points="1990.86,122.494 1990.86,48.9942 " />
<polyline fill="none" vector-effect="none" points="2263.86,48.9942 1990.86,48.9942 " />
<polyline fill="none" vector-effect="none" points="2263.86,122.494 2263.86,48.9942 " />
<polyline fill="none" vector-effect="none" points="2527.86,122.494 2263.86,122.494 " />
<polyline fill="none" vector-effect="none" points="2527.86,122.494 2527.86,294.994 " />
<polyline fill="none" vector-effect="none" points="2599.86,294.994 2527.86,294.994 " />
<polyline fill="none" vector-effect="none" points="2599.86,122.494 2599.86,294.994 " />
<polyline fill="none" vector-effect="none" points="2852.46,122.494 2599.86,122.494 " />
<polyline fill="none" vector-effect="none" points="2852.46,122.494 2852.46,48.9942 " />
<polyline fill="none" vector-effect="none" points="3114.06,48.9942 2852.46,48.9942 " />
<polyline fill="none" vector-effect="none" points="3114.06,122.494 3114.06,48.9942 " />
<polyline fill="none" vector-effect="none" points="3363.66,122.494 3114.06,122.494 " />
<polyline fill="none" vector-effect="none" points="3363.66,122.494 3363.66,48.9942 " />
<polyline fill="none" vector-effect="none" points="3625.26,48.9942 3363.66,48.9942 " />
<polyline fill="none" vector-effect="none" points="3625.26,122.494 3625.26,48.9942 " />
<polyline fill="none" vector-effect="none" points="3877.86,122.494 3625.26,122.494 " />
<polyline fill="none" vector-effect="none" points="3877.86,122.494 3877.86,324.284 " />
<polyline fill="none" vector-effect="none" points="3949.86,324.284 3877.86,324.284 " />
<polyline fill="none" vector-effect="none" points="3949.86,122.494 3949.86,324.284 " />
<polyline fill="none" vector-effect="none" points="4161.57,122.494 3949.86,122.494 " />
<polyline fill="none" vector-effect="none" points="4161.57,122.494 4161.57,48.9942 " />
<polyline fill="none" vector-effect="none" points="4382.29,48.9942 4161.57,48.9942 " />
<polyline fill="none" vector-effect="none" points="4382.29,122.494 4382.29,48.9942 " />
<polyline fill="none" vector-effect="none" points="4591,122.494 4382.29,122.494 " />
<polyline fill="none" vector-effect="none" points="4591,122.494 4591,48.9942 " />
<polyline fill="none" vector-effect="none" points="4811.72,48.9942 4591,48.9942 " />
<polyline fill="none" vector-effect="none" points="4811.72,122.494 4811.72,48.9942 " />
<polyline fill="none" vector-effect="none" points="5020.43,122.494 4811.72,122.494 " />
<polyline fill="none" vector-effect="none" points="5020.43,122.494 5020.43,48.9942 " />
<polyline fill="none" vector-effect="none" points="5241.14,48.9942 5020.43,48.9942 " />
<polyline fill="none" vector-effect="none" points="5241.14,122.494 5241.14,48.9942 " />
<polyline fill="none" vector-effect="none" points="5452.86,122.494 5241.14,122.494 " />
<polyline fill="none" vector-effect="none" points="5452.86,324.284 5452.86,122.494 " />
<polyline fill="none" vector-effect="none" points="5452.86,324.284 5526.36,324.284 " />
<polyline fill="none" vector-effect="none" points="5526.36,608.573 5526.36,324.284 " />
<polyline fill="none" vector-effect="none" points="5452.86,608.573 5526.36,608.573 " />
<polyline fill="none" vector-effect="none" points="5452.86,880.863 5452.86,608.573 " />
<polyline fill="none" vector-effect="none" points="5452.86,880.863 5526.36,880.863 " />
<polyline fill="none" vector-effect="none" points="5526.36,1165.15 5526.36,880.863 " />
<polyline fill="none" vector-effect="none" points="5452.86,1165.15 5526.36,1165.15 " />
<polyline fill="none" vector-effect="none" points="5452.86,1437.44 5452.86,1165.15 " />
<polyline fill="none" vector-effect="none" points="5452.86,1437.44 5526.36,1437.44 " />
<polyline fill="none" vector-effect="none" points="5526.36,1721.73 5526.36,1437.44 " />
<polyline fill="none" vector-effect="none" points="5452.86,1721.73 5526.36,1721.73 " />
<polyline fill="none" vector-effect="none" points="5452.86,1994.02 5452.86,1721.73 " />
<polyline fill="none" vector-effect="none" points="5452.86,1994.02 5526.36,1994.02 " />
<polyline fill="none" vector-effect="none" points="5526.36,2278.31 5526.36,1994.02 " />
<polyline fill="none" vector-effect="none" points="5452.86,2278.31 5526.36,2278.31 " />
<polyline fill="none" vector-effect="none" points="5452.86,2550.6 5452.86,2278.31 " />
<polyline fill="none" vector-effect="none" points="5452.86,2550.6 5526.36,2550.6 " />
<polyline fill="none" vector-effect="none" points="5526.36,2834.89 5526.36,2550.6 " />
<polyline fill="none" vector-effect="none" points="5452.86,2834.89 5526.36,2834.89 " />
<polyline fill="none" vector-effect="none" points="5452.86,3107.18 5452.86,2834.89 " />
<polyline fill="none" vector-effect="none" points="5452.86,3107.18 5526.36,3107.18 " />
<polyline fill="none" vector-effect="none" points="5526.36,3391.47 5526.36,3107.18 " />
<polyline fill="none" vector-effect="none" points="5452.86,3391.47 5526.36,3391.47 " />
<polyline fill="none" vector-effect="none" points="5452.86,3663.76 5452.86,3391.47 " />
<polyline fill="none" vector-effect="none" points="5452.86,3663.76 5526.36,3663.76 " />
<polyline fill="none" vector-effect="none" points="5526.36,3948.05 5526.36,3663.76 " />
<polyline fill="none" vector-effect="none" points="5452.86,3948.05 5526.36,3948.05 " />
<polyline fill="none" vector-effect="none" points="5452.86,4220.34 5452.86,3948.05 " />
<polyline fill="none" vector-effect="none" points="5452.86,4220.34 5526.36,4220.34 " />
<polyline fill="none" vector-effect="none" points="5526.36,4504.63 5526.36,4220.34 " />
<polyline fill="none" vector-effect="none" points="5452.86,4504.63 5526.36,4504.63 " />
<polyline fill="none" vector-effect="none" points="5452.86,4776.92 5452.86,4504.63 " />
<polyline fill="none" vector-effect="none" points="5452.86,4776.92 5526.36,4776.92 " />
<polyline fill="none" vector-effect="none" points="5526.36,5061.2 5526.36,4776.92 " />
<polyline fill="none" vector-effect="none" points="5452.86,5061.2 5526.36,5061.2 " />
<polyline fill="none" vector-effect="none" points="5452.86,5262.99 5452.86,5061.2 " />
<polyline fill="none" vector-effect="none" points="5241.14,5262.99 5452.86,5262.99 " />
<polyline fill="none" vector-effect="none" points="5241.14,5262.99 5241.14,5336.49 " />
<polyline fill="none" vector-effect="none" points="5020.43,5262.99 5020.43,5336.49 " />
<polyline fill="none" vector-effect="none" points="4811.72,5262.99 5020.43,5262.99 " />
<polyline fill="none" vector-effect="none" points="4811.72,5262.99 4811.72,5336.49 " />
<polyline fill="none" vector-effect="none" points="4591,5262.99 4591,5336.49 " />
<polyline fill="none" vector-effect="none" points="4382.29,5262.99 4591,5262.99 " />
<polyline fill="none" vector-effect="none" points="4382.29,5262.99 4382.29,5336.49 " />
<polyline fill="none" vector-effect="none" points="4161.57,5262.99 4161.57,5336.49 " />
<polyline fill="none" vector-effect="none" points="3949.86,5262.99 4161.57,5262.99 " />
<polyline fill="none" vector-effect="none" points="3949.86,5061.2 3877.86,5061.2 " />
<polyline fill="none" vector-effect="none" points="3625.26,5262.99 3877.86,5262.99 " />
<polyline fill="none" vector-effect="none" points="3625.26,5262.99 3625.26,5336.49 " />
<polyline fill="none" vector-effect="none" points="3363.66,5262.99 3363.66,5336.49 " />
<polyline fill="none" vector-effect="none" points="3114.06,5262.99 3363.66,5262.99 " />
<polyline fill="none" vector-effect="none" points="3114.06,5262.99 3114.06,5336.49 " />
<polyline fill="none" vector-effect="none" points="2852.46,5262.99 2852.46,5336.49 " />
<polyline fill="none" vector-effect="none" points="2599.86,5262.99 2852.46,5262.99 " />
<polyline fill="none" vector-effect="none" points="2599.86,5064.33 2527.86,5064.33 " />
<polyline fill="none" vector-effect="none" points="2263.86,5262.99 2527.86,5262.99 " />
<polyline fill="none" vector-effect="none" points="2263.86,5262.99 2263.86,5336.49 " />
<polyline fill="none" vector-effect="none" points="1990.86,5262.99 1990.86,5336.49 " />
<polyline fill="none" vector-effect="none" points="1729.86,5262.99 1990.86,5262.99 " />
<polyline fill="none" vector-effect="none" points="1729.86,5262.99 1729.86,5336.49 " />
<polyline fill="none" vector-effect="none" points="1456.86,5262.99 1456.86,5336.49 " />
<polyline fill="none" vector-effect="none" points="1195.86,5262.99 1456.86,5262.99 " />
<polyline fill="none" vector-effect="none" points="1195.86,5262.99 1195.86,5336.49 " />
<polyline fill="none" vector-effect="none" points="922.859,5262.99 922.859,5336.49 " />
<polyline fill="none" vector-effect="none" points="661.859,5262.99 922.859,5262.99 " />
<polyline fill="none" vector-effect="none" points="661.859,5262.99 661.859,5336.49 " />
<polyline fill="none" vector-effect="none" points="388.859,5262.99 388.859,5336.49 " />
<polyline fill="none" vector-effect="none" points="124.859,5262.99 388.859,5262.99 " />
<polyline fill="none" vector-effect="none" points="124.859,5262.99 124.859,5064.33 " />
<polyline fill="none" vector-effect="none" points="2599.86,2541.99 2527.86,2541.99 " />
<polyline fill="none" vector-effect="none" points="2527.86,2541.99 2527.86,2787.99 " />
<polyline fill="none" vector-effect="none" points="2527.86,2787.99 2321.03,2787.99 " />
<polyline fill="none" vector-effect="none" points="2321.03,2859.99 2321.03,2787.99 " />
<polyline fill="none" vector-effect="none" points="2527.86,2859.99 2321.03,2859.99 " />
<polyline fill="none" vector-effect="none" points="2527.86,2859.99 2527.86,3132.16 " />
<polyline fill="none" vector-effect="none" points="2599.86,3132.16 2527.86,3132.16 " />
<polyline fill="none" vector-effect="none" points="2599.86,2862.99 2599.86,3132.16 " />
<polyline fill="none" vector-effect="none" points="2599.86,2862.99 2598.36,2862.99 " />
<polyline fill="none" vector-effect="none" points="2598.36,2862.99 2598.36,2784.99 " />
<polyline fill="none" vector-effect="none" points="2599.86,2784.99 2598.36,2784.99 " />
<polyline fill="none" vector-effect="none" points="2599.86,2541.99 2599.86,2784.99 " />
<polyline fill="none" vector-effect="none" points="898.359,2787.99 621.025,2787.99 " />
<polyline fill="none" vector-effect="none" points="621.025,2859.99 621.025,2787.99 " />
<polyline fill="none" vector-effect="none" points="898.359,2859.99 621.025,2859.99 " />
<polyline fill="none" vector-effect="none" points="898.359,2859.99 898.359,2787.99 " />
<polyline fill="none" vector-effect="none" points="1465.03,2787.99 1187.69,2787.99 " />
<polyline fill="none" vector-effect="none" points="1187.69,2859.99 1187.69,2787.99 " />
<polyline fill="none" vector-effect="none" points="1465.03,2859.99 1187.69,2859.99 " />
<polyline fill="none" vector-effect="none" points="1465.03,2859.99 1465.03,2787.99 " />
<polyline fill="none" vector-effect="none" points="2031.69,2787.99 1754.36,2787.99 " />
<polyline fill="none" vector-effect="none" points="1754.36,2859.99 1754.36,2787.99 " />
<polyline fill="none" vector-effect="none" points="2031.69,2859.99 1754.36,2859.99 " />
<polyline fill="none" vector-effect="none" points="2031.69,2859.99 2031.69,2787.99 " />
<polyline fill="none" vector-effect="none" points="3877.86,3948.05 3877.86,4220.34 " />
<polyline fill="none" vector-effect="none" points="3949.86,4220.34 3877.86,4220.34 " />
<polyline fill="none" vector-effect="none" points="3949.86,3948.05 3949.86,4220.34 " />
<polyline fill="none" vector-effect="none" points="3949.86,3948.05 3877.86,3948.05 " />
<polyline fill="none" vector-effect="none" points="3877.86,3391.47 3877.86,3663.76 " />
<polyline fill="none" vector-effect="none" points="3949.86,3663.76 3877.86,3663.76 " />
<polyline fill="none" vector-effect="none" points="3949.86,3391.47 3949.86,3663.76 " />
<polyline fill="none" vector-effect="none" points="3949.86,3391.47 3877.86,3391.47 " />
<polyline fill="none" vector-effect="none" points="3877.86,2834.89 3877.86,3107.18 " />
<polyline fill="none" vector-effect="none" points="3949.86,3107.18 3877.86,3107.18 " />
<polyline fill="none" vector-effect="none" points="3949.86,2834.89 3949.86,3107.18 " />
<polyline fill="none" vector-effect="none" points="3949.86,2834.89 3877.86,2834.89 " />
<polyline fill="none" vector-effect="none" points="3877.86,2278.31 3877.86,2550.6 " />
<polyline fill="none" vector-effect="none" points="3949.86,2550.6 3877.86,2550.6 " />
<polyline fill="none" vector-effect="none" points="3949.86,2278.31 3949.86,2550.6 " />
<polyline fill="none" vector-effect="none" points="3949.86,2278.31 3877.86,2278.31 " />
<polyline fill="none" vector-effect="none" points="3877.86,608.573 3877.86,880.863 " />
<polyline fill="none" vector-effect="none" points="3949.86,880.863 3877.86,880.863 " />
<polyline fill="none" vector-effect="none" points="3949.86,608.573 3949.86,880.863 " />
<polyline fill="none" vector-effect="none" points="3949.86,608.573 3877.86,608.573 " />
<polyline fill="none" vector-effect="none" points="3877.86,1165.15 3877.86,1437.44 " />
<polyline fill="none" vector-effect="none" points="3949.86,1437.44 3877.86,1437.44 " />
<polyline fill="none" vector-effect="none" points="3949.86,1165.15 3949.86,1437.44 " />
<polyline fill="none" vector-effect="none" points="3949.86,1165.15 3877.86,1165.15 " />
<polyline fill="none" vector-effect="none" points="3877.86,1721.73 3877.86,1994.02 " />
<polyline fill="none" vector-effect="none" points="3949.86,1994.02 3877.86,1994.02 " />
<polyline fill="none" vector-effect="none" points="3949.86,1721.73 3949.86,1994.02 " />
<polyline fill="none" vector-effect="none" points="3949.86,1721.73 3877.86,1721.73 " />
<polyline fill="none" vector-effect="none" points="3877.86,4504.63 3877.86,4776.92 " />
<polyline fill="none" vector-effect="none" points="3949.86,4776.92 3877.86,4776.92 " />
<polyline fill="none" vector-effect="none" points="3949.86,4504.63 3949.86,4776.92 " />
<polyline fill="none" vector-effect="none" points="3949.86,4504.63 3877.86,4504.63 " />
<polyline fill="none" vector-effect="none" points="2527.86,2043.99 2527.86,2286.99 " />
<polyline fill="none" vector-effect="none" points="2599.86,2286.99 2527.86,2286.99 " />
<polyline fill="none" vector-effect="none" points="2599.86,2043.99 2599.86,2286.99 " />
<polyline fill="none" vector-effect="none" points="2599.86,2043.99 2527.86,2043.99 " />
<polyline fill="none" vector-effect="none" points="2527.86,1545.99 2527.86,1788.99 " />
<polyline fill="none" vector-effect="none" points="2599.86,1788.99 2527.86,1788.99 " />
<polyline fill="none" vector-effect="none" points="2599.86,1545.99 2599.86,1788.99 " />
<polyline fill="none" vector-effect="none" points="2599.86,1545.99 2527.86,1545.99 " />
<polyline fill="none" vector-effect="none" points="2527.86,3413.33 2527.86,3682.49 " />
<polyline fill="none" vector-effect="none" points="2599.86,3682.49 2527.86,3682.49 " />
<polyline fill="none" vector-effect="none" points="2599.86,3413.33 2599.86,3682.49 " />
<polyline fill="none" vector-effect="none" points="2599.86,3413.33 2527.86,3413.33 " />
<polyline fill="none" vector-effect="none" points="2527.86,3963.66 2527.86,4232.83 " />
<polyline fill="none" vector-effect="none" points="2599.86,4232.83 2527.86,4232.83 " />
<polyline fill="none" vector-effect="none" points="2599.86,3963.66 2599.86,4232.83 " />
<polyline fill="none" vector-effect="none" points="2599.86,3963.66 2527.86,3963.66 " />
<polyline fill="none" vector-effect="none" points="2527.86,4513.99 2527.86,4783.16 " />
<polyline fill="none" vector-effect="none" points="2599.86,4783.16 2527.86,4783.16 " />
<polyline fill="none" vector-effect="none" points="2599.86,4513.99 2599.86,4783.16 " />
<polyline fill="none" vector-effect="none" points="2599.86,4513.99 2527.86,4513.99 " />
<polyline fill="none" vector-effect="none" points="2527.86,549.994 2527.86,792.994 " />
<polyline fill="none" vector-effect="none" points="2599.86,792.994 2527.86,792.994 " />
<polyline fill="none" vector-effect="none" points="2599.86,549.994 2599.86,792.994 " />
<polyline fill="none" vector-effect="none" points="2599.86,549.994 2527.86,549.994 " />
<polyline fill="none" vector-effect="none" points="2527.86,1047.99 2527.86,1290.99 " />
<polyline fill="none" vector-effect="none" points="2599.86,1290.99 2527.86,1290.99 " />
<polyline fill="none" vector-effect="none" points="2599.86,1047.99 2599.86,1290.99 " />
<polyline fill="none" vector-effect="none" points="2599.86,1047.99 2527.86,1047.99 " />
<polyline fill="none" vector-effect="none" points="2527.86,5064.33 2527.86,5262.99 " />
<polyline fill="none" vector-effect="none" points="2599.86,5064.33 2599.86,5262.99 " />
<polyline fill="none" vector-effect="none" points="3877.86,5061.2 3877.86,5262.99 " />
<polyline fill="none" vector-effect="none" points="3949.86,5061.2 3949.86,5262.99 " />
<polyline fill="none" vector-effect="none" points="3625.26,5336.49 3363.66,5336.49 " />
<polyline fill="none" vector-effect="none" points="3114.06,5336.49 2852.46,5336.49 " />
<polyline fill="none" vector-effect="none" points="661.859,5336.49 388.859,5336.49 " />
<polyline fill="none" vector-effect="none" points="1195.86,5336.49 922.859,5336.49 " />
<polyline fill="none" vector-effect="none" points="1729.86,5336.49 1456.86,5336.49 " />
<polyline fill="none" vector-effect="none" points="2263.86,5336.49 1990.86,5336.49 " />
<polyline fill="none" vector-effect="none" points="5241.14,5336.49 5020.43,5336.49 " />
<polyline fill="none" vector-effect="none" points="4382.29,5336.49 4161.57,5336.49 " />
<polyline fill="none" vector-effect="none" points="4811.72,5336.49 4591,5336.49 " />
</g>

<g fill="none" stroke="#000000" stroke-opacity="1" stroke-width="1" stroke-linecap="square" stroke-linejoin="bevel" transform="matrix(1,0,0,1,0,0)"
font-family="Arial" font-size="12" font-weight="400" font-style="normal" 
>
</g>
</g>
</svg>
