<?xml version="1.0" encoding="UTF-8"?>
<svg width="609.6mm" height="457.2mm" version="1.2" viewBox="0 0 7200 5400" xmlns="http://www.w3.org/2000/svg" xmlns:cc="http://creativecommons.org/ns#" xmlns:dc="http://purl.org/dc/elements/1.1/" xmlns:rdf="http://www.w3.org/1999/02/22-rdf-syntax-ns#">
 <metadata>
  <rdf:RDF>
   <cc:Work rdf:about="">
    <dc:format>image/svg+xml</dc:format>
    <dc:type rdf:resource="http://purl.org/dc/dcmitype/StillImage"/>
    <dc:title/>
   </cc:Work>
  </rdf:RDF>
 </metadata>
 <g fill-rule="evenodd" font-family="Arial" font-size="12" font-weight="400" stroke-linecap="square" stroke-linejoin="bevel" stroke-width=".3">
  <g fill="#fff">
   <rect width="7200" height="5400" stroke-width=".3"/>
  </g>
  <g fill="none" stroke="#000" stroke-linecap="round" stroke-linejoin="bevel">
   <polyline points="1778.2 4750.9 1494.8 4750.9"/>
   <polyline points="1494.8 4824.4 1494.8 4750.9"/>
   <polyline points="1211.5 4824.4 1494.8 4824.4"/>
   <polyline points="1211.5 4824.4 1211.5 4750.9"/>
   <polyline points="1211.5 4750.9 928.15 4750.9"/>
   <polyline points="928.15 4824.4 928.15 4750.9"/>
   <polyline points="644.82 4824.4 928.15 4824.4"/>
   <polyline points="644.82 4824.4 644.82 4750.9"/>
   <polyline points="644.82 4750.9 361.48 4750.9"/>
   <polyline points="361.48 4824.4 361.48 4750.9"/>
   <polyline points="78.152 4824.4 361.48 4824.4"/>
   <polyline points="78.152 4674.4 78.152 4824.4"/>
   <polyline points="151.65 4674.4 78.152 4674.4"/>
   <polyline points="151.65 4524.4 151.65 4674.4"/>
   <polyline points="151.65 4524.4 78.152 4524.4"/>
   <polyline points="78.152 4374.4 78.152 4524.4"/>
   <polyline points="78.152 4374.4 2628.2 4374.4"/>
   <polyline points="2628.2 4374.4 2628.2 4524.4"/>
   <polyline points="2554.6 4524.4 2628.2 4524.4"/>
   <polyline points="2554.6 4674.4 2554.6 4524.4"/>
   <polyline points="2554.6 4674.4 2628.2 4674.4"/>
   <polyline points="2628.2 4674.4 2628.2 4824.4"/>
   <polyline points="2344.8 4824.4 2628.2 4824.4"/>
   <polyline points="2344.8 4824.4 2344.8 4750.9"/>
   <polyline points="2344.8 4750.9 2061.5 4750.9"/>
   <polyline points="2061.5 4824.4 2061.5 4750.9"/>
   <polyline points="1778.2 4824.4 2061.5 4824.4"/>
   <polyline points="1778.2 4824.4 1778.2 4750.9"/>
   <polyline points="3119.9 1835 2864.3 1835"/>
   <polyline points="2864.3 1908.5 2864.3 1835"/>
   <polyline points="2864.3 1908.5 2608.7 1908.5"/>
   <polyline points="2608.7 1761.5 2608.7 1908.5"/>
   <polyline points="2608.7 1761.5 2536.7 1761.5"/>
   <polyline points="2536.7 1761.5 2536.7 1908.5"/>
   <polyline points="2536.7 1908.5 2269.7 1908.5"/>
   <polyline points="2269.7 1908.5 2269.7 1835"/>
   <polyline points="2269.7 1835 2002.7 1835"/>
   <polyline points="2002.7 1908.5 2002.7 1835"/>
   <polyline points="2002.7 1908.5 1735.7 1908.5"/>
   <polyline points="1735.7 1908.5 1735.7 1835"/>
   <polyline points="1735.7 1835 1468.7 1835"/>
   <polyline points="1468.7 1908.5 1468.7 1835"/>
   <polyline points="1468.7 1908.5 1201.7 1908.5"/>
   <polyline points="1201.7 1908.5 1201.7 1835"/>
   <polyline points="1201.7 1835 934.73 1835"/>
   <polyline points="934.73 1908.5 934.73 1835"/>
   <polyline points="934.73 1908.5 667.73 1908.5"/>
   <polyline points="667.73 1908.5 667.73 1835"/>
   <polyline points="667.73 1835 400.73 1835"/>
   <polyline points="400.73 1908.5 400.73 1835"/>
   <polyline points="400.73 1908.5 133.73 1908.5"/>
   <polyline points="133.73 1908.5 133.73 1761.5"/>
   <polyline points="133.73 1605.5 133.73 1458.5"/>
   <polyline points="2536.7 1458.5 133.73 1458.5"/>
   <polyline points="2536.7 1458.5 2536.7 1605.5"/>
   <polyline points="2608.7 1605.5 2536.7 1605.5"/>
   <polyline points="2608.7 1458.5 2608.7 1605.5"/>
   <polyline points="3886.7 1458.5 2608.7 1458.5"/>
   <polyline points="3886.7 1458.5 3886.7 1605.5"/>
   <polyline points="3958.7 1605.5 3886.7 1605.5"/>
   <polyline points="3958.7 1458.5 3958.7 1605.5"/>
   <polyline points="5461.7 1458.5 3958.7 1458.5"/>
   <polyline points="5461.7 1605.5 5461.7 1458.5"/>
   <polyline points="5461.7 1605.5 5535.2 1605.5"/>
   <polyline points="5535.2 1605.5 5535.2 1761.5"/>
   <polyline points="5461.7 1761.5 5535.2 1761.5"/>
   <polyline points="5461.7 1908.5 5461.7 1761.5"/>
   <polyline points="5461.7 1908.5 5247 1908.5"/>
   <polyline points="5247 1908.5 5247 1835"/>
   <polyline points="5247 1835 5032.3 1835"/>
   <polyline points="5032.3 1908.5 5032.3 1835"/>
   <polyline points="5032.3 1908.5 4817.6 1908.5"/>
   <polyline points="4817.6 1908.5 4817.6 1835"/>
   <polyline points="4817.6 1835 4602.9 1835"/>
   <polyline points="4602.9 1908.5 4602.9 1835"/>
   <polyline points="4602.9 1908.5 4388.2 1908.5"/>
   <polyline points="4388.2 1908.5 4388.2 1835"/>
   <polyline points="4388.2 1835 4173.4 1835"/>
   <polyline points="4173.4 1908.5 4173.4 1835"/>
   <polyline points="4173.4 1908.5 3958.7 1908.5"/>
   <polyline points="3958.7 1761.5 3958.7 1908.5"/>
   <polyline points="3958.7 1761.5 3886.7 1761.5"/>
   <polyline points="3886.7 1761.5 3886.7 1908.5"/>
   <polyline points="3886.7 1908.5 3631.1 1908.5"/>
   <polyline points="3631.1 1908.5 3631.1 1835"/>
   <polyline points="3631.1 1835 3375.5 1835"/>
   <polyline points="3375.5 1908.5 3375.5 1835"/>
   <polyline points="3375.5 1908.5 3119.9 1908.5"/>
   <polyline points="3119.9 1908.5 3119.9 1835"/>
   <polyline points="60.234 1605.5 133.73 1605.5"/>
   <polyline points="60.234 1761.5 133.73 1761.5"/>
   <polyline points="60.234 1605.5 60.234 1761.5"/>
   <polyline points="603.02 494.36 603.02 420.86"/>
   <polyline points="365.18 420.86 603.02 420.86"/>
   <polyline points="365.18 494.36 365.18 420.86"/>
   <polyline points="127.35 494.36 365.18 494.36"/>
   <polyline points="127.35 494.36 127.35 347.36"/>
   <polyline points="127.35 347.36 53.852 347.36"/>
   <polyline points="53.852 191.36 53.852 347.36"/>
   <polyline points="127.35 191.36 127.35 44.364"/>
   <polyline points="127.35 44.364 2267.8 44.364"/>
   <polyline points="2267.8 44.364 2267.8 191.36"/>
   <polyline points="2267.8 191.36 2339.8 191.36"/>
   <polyline points="2339.8 44.364 2339.8 191.36"/>
   <polyline points="2339.8 44.364 3992.8 44.364"/>
   <polyline points="3992.8 44.364 3992.8 191.36"/>
   <polyline points="3992.8 191.36 4064.8 191.36"/>
   <polyline points="4064.8 44.364 4064.8 191.36"/>
   <polyline points="4064.8 44.364 5267.8 44.364"/>
   <polyline points="5267.8 44.364 5267.8 191.36"/>
   <polyline points="5267.8 191.36 5341.4 191.36"/>
   <polyline points="5341.4 191.36 5341.4 347.36"/>
   <polyline points="5267.8 347.36 5341.4 347.36"/>
   <polyline points="5267.8 347.36 5267.8 494.36"/>
   <polyline points="5027.2 494.36 5267.8 494.36"/>
   <polyline points="5027.2 494.36 5027.2 420.86"/>
   <polyline points="4786.6 420.86 5027.2 420.86"/>
   <polyline points="4786.6 494.36 4786.6 420.86"/>
   <polyline points="4546 494.36 4786.6 494.36"/>
   <polyline points="4546 494.36 4546 420.86"/>
   <polyline points="4305.4 420.86 4546 420.86"/>
   <polyline points="4305.4 494.36 4305.4 420.86"/>
   <polyline points="4064.8 494.36 4305.4 494.36"/>
   <polyline points="4064.8 347.36 4064.8 494.36"/>
   <polyline points="3992.8 347.36 4064.8 347.36"/>
   <polyline points="3992.8 347.36 3992.8 494.36"/>
   <polyline points="3756.7 494.36 3992.8 494.36"/>
   <polyline points="3756.7 494.36 3756.7 420.86"/>
   <polyline points="3520.6 420.86 3756.7 420.86"/>
   <polyline points="3520.6 494.36 3520.6 420.86"/>
   <polyline points="3284.4 494.36 3520.6 494.36"/>
   <polyline points="3284.4 494.36 3284.4 420.86"/>
   <polyline points="3048.3 420.86 3284.4 420.86"/>
   <polyline points="3048.3 494.36 3048.3 420.86"/>
   <polyline points="2812.1 494.36 3048.3 494.36"/>
   <polyline points="2812.1 494.36 2812.1 420.86"/>
   <polyline points="2576 420.86 2812.1 420.86"/>
   <polyline points="2576 494.36 2576 420.86"/>
   <polyline points="2339.8 494.36 2576 494.36"/>
   <polyline points="2339.8 347.36 2339.8 494.36"/>
   <polyline points="2267.8 347.36 2339.8 347.36"/>
   <polyline points="2267.8 347.36 2267.8 494.36"/>
   <polyline points="2030 494.36 2267.8 494.36"/>
   <polyline points="2030 494.36 2030 420.86"/>
   <polyline points="1792.2 420.86 2030 420.86"/>
   <polyline points="1792.2 494.36 1792.2 420.86"/>
   <polyline points="1554.4 494.36 1792.2 494.36"/>
   <polyline points="1554.4 494.36 1554.4 420.86"/>
   <polyline points="1316.5 420.86 1554.4 420.86"/>
   <polyline points="1316.5 494.36 1316.5 420.86"/>
   <polyline points="1078.7 494.36 1316.5 494.36"/>
   <polyline points="1078.7 494.36 1078.7 420.86"/>
   <polyline points="840.85 420.86 1078.7 420.86"/>
   <polyline points="840.85 494.36 840.85 420.86"/>
   <polyline points="603.02 494.36 840.85 494.36"/>
   <polyline points="127.35 191.36 53.852 191.36"/>
   <polyline points="3527.1 889.03 3763.2 889.03"/>
   <polyline points="3527.1 962.53 3527.1 889.03"/>
   <polyline points="3291 962.53 3527.1 962.53"/>
   <polyline points="3291 962.53 3291 889.03"/>
   <polyline points="3054.8 889.03 3291 889.03"/>
   <polyline points="3054.8 962.53 3054.8 889.03"/>
   <polyline points="2818.7 962.53 3054.8 962.53"/>
   <polyline points="2818.7 962.53 2818.7 889.03"/>
   <polyline points="2582.5 889.03 2818.7 889.03"/>
   <polyline points="2582.5 962.53 2582.5 889.03"/>
   <polyline points="2346.4 962.53 2582.5 962.53"/>
   <polyline points="2346.4 815.53 2346.4 962.53"/>
   <polyline points="2274.4 815.53 2346.4 815.53"/>
   <polyline points="2274.4 815.53 2274.4 962.53"/>
   <polyline points="2036.5 962.53 2274.4 962.53"/>
   <polyline points="2036.5 962.53 2036.5 889.03"/>
   <polyline points="1798.7 889.03 2036.5 889.03"/>
   <polyline points="1798.7 962.53 1798.7 889.03"/>
   <polyline points="1560.9 962.53 1798.7 962.53"/>
   <polyline points="1560.9 962.53 1560.9 889.03"/>
   <polyline points="1323 889.03 1560.9 889.03"/>
   <polyline points="1323 962.53 1323 889.03"/>
   <polyline points="1085.2 962.53 1323 962.53"/>
   <polyline points="1085.2 962.53 1085.2 889.03"/>
   <polyline points="847.38 889.03 1085.2 889.03"/>
   <polyline points="847.38 962.53 847.38 889.03"/>
   <polyline points="609.54 962.53 847.38 962.53"/>
   <polyline points="609.54 962.53 609.54 889.03"/>
   <polyline points="371.71 889.03 609.54 889.03"/>
   <polyline points="371.71 962.53 371.71 889.03"/>
   <polyline points="133.88 962.53 371.71 962.53"/>
   <polyline points="133.88 962.53 133.88 815.53"/>
   <polyline points="133.88 815.53 60.377 815.53"/>
   <polyline points="60.377 659.53 60.377 815.53"/>
   <polyline points="133.88 659.53 60.377 659.53"/>
   <polyline points="133.88 659.53 133.88 512.53"/>
   <polyline points="133.88 512.53 2274.4 512.53"/>
   <polyline points="2274.4 512.53 2274.4 659.53"/>
   <polyline points="2274.4 659.53 2346.4 659.53"/>
   <polyline points="2346.4 512.53 2346.4 659.53"/>
   <polyline points="2346.4 512.53 3999.4 512.53"/>
   <polyline points="3999.4 512.53 3999.4 737.53"/>
   <polyline points="4071.4 512.53 5274.4 512.53"/>
   <polyline points="5274.4 512.53 5274.4 659.53"/>
   <polyline points="5274.4 659.53 5347.9 659.53"/>
   <polyline points="5347.9 659.53 5347.9 815.53"/>
   <polyline points="5274.4 815.53 5347.9 815.53"/>
   <polyline points="5274.4 815.53 5274.4 962.53"/>
   <polyline points="5033.8 962.53 5274.4 962.53"/>
   <polyline points="5033.8 962.53 5033.8 889.03"/>
   <polyline points="4793.2 889.03 5033.8 889.03"/>
   <polyline points="4793.2 962.53 4793.2 889.03"/>
   <polyline points="4552.6 962.53 4793.2 962.53"/>
   <polyline points="4552.6 962.53 4552.6 889.03"/>
   <polyline points="4312 889.03 4552.6 889.03"/>
   <polyline points="4312 962.53 4312 889.03"/>
   <polyline points="3763.2 962.53 4312 962.53"/>
   <polyline points="3763.2 962.53 3763.2 889.03"/>
   <polyline points="4071.4 512.53 4071.4 737.53"/>
   <polyline points="4071.4 737.53 3999.4 737.53"/>
   <polyline points="4479.4 1438.9 4479.4 1365.4"/>
   <polyline points="4213.2 1365.4 4479.4 1365.4"/>
   <polyline points="4213.2 1438.9 4213.2 1365.4"/>
   <polyline points="3947.1 1438.9 3947.1 1365.4"/>
   <polyline points="3680.9 1365.4 3947.1 1365.4"/>
   <polyline points="3680.9 1438.9 3680.9 1365.4"/>
   <polyline points="3414.7 1438.9 3414.7 1365.4"/>
   <polyline points="3148.5 1365.4 3414.7 1365.4"/>
   <polyline points="3148.5 1438.9 3148.5 1365.4"/>
   <polyline points="2882.3 1438.9 2882.3 1365.4"/>
   <polyline points="2616.2 1365.4 2882.3 1365.4"/>
   <polyline points="2616.2 1438.9 2616.2 1365.4"/>
   <polyline points="2350 1291.9 2350 1438.9"/>
   <polyline points="2278 1291.9 2350 1291.9"/>
   <polyline points="2278 1291.9 2278 1438.9"/>
   <polyline points="2040.1 1438.9 2278 1438.9"/>
   <polyline points="2040.1 1438.9 2040.1 1365.4"/>
   <polyline points="1802.3 1365.4 2040.1 1365.4"/>
   <polyline points="1564.5 1438.9 1564.5 1365.4"/>
   <polyline points="1326.6 1365.4 1564.5 1365.4"/>
   <polyline points="1326.6 1438.9 1326.6 1365.4"/>
   <polyline points="1088.8 1438.9 1088.8 1365.4"/>
   <polyline points="850.98 1365.4 1088.8 1365.4"/>
   <polyline points="850.98 1438.9 850.98 1365.4"/>
   <polyline points="613.14 1438.9 613.14 1365.4"/>
   <polyline points="375.31 1365.4 613.14 1365.4"/>
   <polyline points="375.31 1438.9 375.31 1365.4"/>
   <polyline points="137.48 1438.9 137.48 1291.9"/>
   <polyline points="137.48 1291.9 63.978 1291.9"/>
   <polyline points="63.978 1135.9 63.978 1291.9"/>
   <polyline points="137.48 1135.9 63.978 1135.9"/>
   <polyline points="137.48 1135.9 137.48 988.92"/>
   <polyline points="137.48 988.92 2278 988.92"/>
   <polyline points="2278 988.92 2278 1135.9"/>
   <polyline points="2278 1135.9 2350 1135.9"/>
   <polyline points="2350 988.92 2350 1135.9"/>
   <polyline points="5278 988.92 5278 1135.9"/>
   <polyline points="5278 1135.9 5351.5 1135.9"/>
   <polyline points="5278 1291.9 5351.5 1291.9"/>
   <polyline points="5278 1291.9 5278 1438.9"/>
   <polyline points="5011.8 1438.9 5011.8 1365.4"/>
   <polyline points="4745.6 1365.4 5011.8 1365.4"/>
   <polyline points="4745.6 1438.9 4745.6 1365.4"/>
   <polyline points="5011.8 1438.9 5278 1438.9"/>
   <polyline points="2350 988.92 5278 988.92"/>
   <polyline points="5351.5 1135.9 5351.5 1291.9"/>
   <polyline points="137.48 1438.9 375.31 1438.9"/>
   <polyline points="1564.5 1438.9 1802.3 1438.9"/>
   <polyline points="1088.8 1438.9 1326.6 1438.9"/>
   <polyline points="613.14 1438.9 850.98 1438.9"/>
   <polyline points="1802.3 1438.9 1802.3 1365.4"/>
   <polyline points="2350 1438.9 2616.2 1438.9"/>
   <polyline points="2882.3 1438.9 3148.5 1438.9"/>
   <polyline points="3414.7 1438.9 3680.9 1438.9"/>
   <polyline points="3947.1 1438.9 4213.2 1438.9"/>
   <polyline points="4479.4 1438.9 4745.6 1438.9"/>
   <polyline points="3146 4026.8 3218 4026.8"/>
   <polyline points="3146 4176.8 3146 4026.8"/>
   <polyline points="3146 4176.8 3218 4176.8"/>
   <polyline points="1793 4176.8 1793 4026.8"/>
   <polyline points="1721 4026.8 1793 4026.8"/>
   <polyline points="1721 4176.8 1721 4026.8"/>
   <polyline points="1721 4176.8 1793 4176.8"/>
   <polyline points="3047 4253.3 2777 4253.3"/>
   <polyline points="2777 4326.8 2777 4253.3"/>
   <polyline points="2507 4326.8 2507 4101.8"/>
   <polyline points="2507 4101.8 2432 4101.8"/>
   <polyline points="2432 4326.8 2432 4101.8"/>
   <polyline points="2169.5 4326.8 2169.5 4253.3"/>
   <polyline points="2169.5 4253.3 1907 4253.3"/>
   <polyline points="1907 4326.8 1907 4253.3"/>
   <polyline points="1644.5 4326.8 1644.5 4253.3"/>
   <polyline points="1644.5 4253.3 1382 4253.3"/>
   <polyline points="1382 4326.8 1382 4253.3"/>
   <polyline points="1119.5 4326.8 1119.5 4253.3"/>
   <polyline points="1119.5 4253.3 857.04 4253.3"/>
   <polyline points="857.04 4326.8 857.04 4253.3"/>
   <polyline points="594.54 4326.8 594.54 4253.3"/>
   <polyline points="594.54 4253.3 332.04 4253.3"/>
   <polyline points="332.04 4326.8 332.04 4253.3"/>
   <polyline points="332.04 4326.8 69.536 4326.8"/>
   <polyline points="69.536 4176.8 143.04 4176.8"/>
   <polyline points="143.04 4176.8 143.04 4026.8"/>
   <polyline points="69.536 4026.8 143.04 4026.8"/>
   <polyline points="69.536 3876.8 69.536 4026.8"/>
   <polyline points="4644.5 3876.8 69.536 3876.8"/>
   <polyline points="4644.5 4026.8 4571 4026.8"/>
   <polyline points="4571 4026.8 4571 4176.8"/>
   <polyline points="4644.5 4176.8 4571 4176.8"/>
   <polyline points="4644.5 4176.8 4644.5 4326.8"/>
   <polyline points="4502 4326.8 4502 4253.3"/>
   <polyline points="4502 4253.3 4359.5 4253.3"/>
   <polyline points="4359.5 4326.8 4359.5 4253.3"/>
   <polyline points="4217 4326.8 4217 4253.3"/>
   <polyline points="4217 4253.3 4074.5 4253.3"/>
   <polyline points="4074.5 4326.8 4074.5 4253.3"/>
   <polyline points="3932 4326.8 3932 4101.8"/>
   <polyline points="3932 4101.8 3857 4101.8"/>
   <polyline points="3857 4326.8 3857 4101.8"/>
   <polyline points="3587 4326.8 3587 4253.3"/>
   <polyline points="3587 4253.3 3317 4253.3"/>
   <polyline points="3317 4326.8 3317 4253.3"/>
   <polyline points="3047 4326.8 3047 4253.3"/>
   <polyline points="4074.5 4326.8 3932 4326.8"/>
   <polyline points="2777 4326.8 2507 4326.8"/>
   <polyline points="4644.5 3876.8 4644.5 4026.8"/>
   <polyline points="69.536 4176.8 69.536 4326.8"/>
   <polyline points="2432 4326.8 2169.5 4326.8"/>
   <polyline points="857.04 4326.8 594.54 4326.8"/>
   <polyline points="1382 4326.8 1119.5 4326.8"/>
   <polyline points="1907 4326.8 1644.5 4326.8"/>
   <polyline points="4644.5 4326.8 4502 4326.8"/>
   <polyline points="4359.5 4326.8 4217 4326.8"/>
   <polyline points="3218 4176.8 3218 4026.8"/>
   <polyline points="3857 4326.8 3587 4326.8"/>
   <polyline points="3317 4326.8 3047 4326.8"/>
   <polyline points="663.71 2866.1 663.71 2792.6"/>
   <polyline points="394.6 2792.6 663.71 2792.6"/>
   <polyline points="394.6 2866.1 394.6 2792.6"/>
   <polyline points="125.48 2866.1 394.6 2866.1"/>
   <polyline points="125.48 2716.1 125.48 2866.1"/>
   <polyline points="125.48 2716.1 198.98 2716.1"/>
   <polyline points="198.98 2566.1 198.98 2716.1"/>
   <polyline points="125.48 2566.1 198.98 2566.1"/>
   <polyline points="125.48 2416.1 125.48 2566.1"/>
   <polyline points="125.48 2416.1 4700.5 2416.1"/>
   <polyline points="4700.5 2416.1 4700.5 2566.1"/>
   <polyline points="4700.5 2566.1 4627 2566.1"/>
   <polyline points="4627 2716.1 4627 2566.1"/>
   <polyline points="4700.5 2716.1 4627 2716.1"/>
   <polyline points="4700.5 2716.1 4700.5 2866.1"/>
   <polyline points="4431.4 2866.1 4700.5 2866.1"/>
   <polyline points="4431.4 2866.1 4431.4 2792.6"/>
   <polyline points="4162.2 2792.6 4431.4 2792.6"/>
   <polyline points="4162.2 2866.1 4162.2 2792.6"/>
   <polyline points="3893.1 2866.1 4162.2 2866.1"/>
   <polyline points="3893.1 2866.1 3893.1 2792.6"/>
   <polyline points="3624 2792.6 3893.1 2792.6"/>
   <polyline points="3624 2866.1 3624 2792.6"/>
   <polyline points="3354.9 2866.1 3624 2866.1"/>
   <polyline points="3354.9 2866.1 3354.9 2792.6"/>
   <polyline points="3085.8 2792.6 3354.9 2792.6"/>
   <polyline points="3085.8 2866.1 3085.8 2792.6"/>
   <polyline points="2816.6 2866.1 3085.8 2866.1"/>
   <polyline points="2816.6 2866.1 2816.6 2792.6"/>
   <polyline points="2547.5 2792.6 2816.6 2792.6"/>
   <polyline points="2547.5 2866.1 2547.5 2792.6"/>
   <polyline points="2278.4 2866.1 2547.5 2866.1"/>
   <polyline points="2278.4 2866.1 2278.4 2792.6"/>
   <polyline points="2009.3 2792.6 2278.4 2792.6"/>
   <polyline points="2009.3 2866.1 2009.3 2792.6"/>
   <polyline points="1740.2 2866.1 2009.3 2866.1"/>
   <polyline points="1740.2 2866.1 1740.2 2792.6"/>
   <polyline points="1471.1 2792.6 1740.2 2792.6"/>
   <polyline points="1471.1 2866.1 1471.1 2792.6"/>
   <polyline points="1202 2866.1 1471.1 2866.1"/>
   <polyline points="1202 2866.1 1202 2792.6"/>
   <polyline points="932.83 2792.6 1202 2792.6"/>
   <polyline points="932.83 2866.1 932.83 2792.6"/>
   <polyline points="663.71 2866.1 932.83 2866.1"/>
   <polyline points="3274 2566.1 3274 2716.1"/>
   <polyline points="1777 2566.1 1849 2566.1"/>
   <polyline points="3202 2716.1 3274 2716.1"/>
   <polyline points="3202 2566.1 3202 2716.1"/>
   <polyline points="3202 2566.1 3274 2566.1"/>
   <polyline points="1849 2566.1 1849 2716.1"/>
   <polyline points="1777 2716.1 1849 2716.1"/>
   <polyline points="1777 2566.1 1777 2716.1"/>
   <polyline points="3114.6 2386.1 3114.6 2312.6"/>
   <polyline points="2844.6 2312.6 3114.6 2312.6"/>
   <polyline points="2844.6 2386.1 2844.6 2312.6"/>
   <polyline points="2844.6 2386.1 2574.6 2386.1"/>
   <polyline points="2574.6 2161.1 2574.6 2386.1"/>
   <polyline points="2574.6 2161.1 2499.6 2161.1"/>
   <polyline points="2499.6 2161.1 2499.6 2386.1"/>
   <polyline points="2499.6 2386.1 2237.1 2386.1"/>
   <polyline points="2237.1 2386.1 2237.1 2312.6"/>
   <polyline points="1974.6 2312.6 2237.1 2312.6"/>
   <polyline points="1974.6 2386.1 1974.6 2312.6"/>
   <polyline points="1974.6 2386.1 1712.1 2386.1"/>
   <polyline points="1712.1 2386.1 1712.1 2312.6"/>
   <polyline points="1449.6 2312.6 1712.1 2312.6"/>
   <polyline points="1449.6 2386.1 1449.6 2312.6"/>
   <polyline points="1449.6 2386.1 1187.1 2386.1"/>
   <polyline points="1187.1 2386.1 1187.1 2312.6"/>
   <polyline points="924.62 2312.6 1187.1 2312.6"/>
   <polyline points="924.62 2386.1 924.62 2312.6"/>
   <polyline points="924.62 2386.1 662.12 2386.1"/>
   <polyline points="662.12 2386.1 662.12 2312.6"/>
   <polyline points="399.62 2312.6 662.12 2312.6"/>
   <polyline points="399.62 2386.1 399.62 2312.6"/>
   <polyline points="399.62 2386.1 137.12 2386.1"/>
   <polyline points="137.12 2236.1 137.12 2386.1"/>
   <polyline points="137.12 2236.1 210.62 2236.1"/>
   <polyline points="210.62 2086.1 210.62 2236.1"/>
   <polyline points="137.12 2086.1 210.62 2086.1"/>
   <polyline points="137.12 1936.1 137.12 2086.1"/>
   <polyline points="4712.1 1936.1 137.12 1936.1"/>
   <polyline points="4712.1 1936.1 4712.1 2086.1"/>
   <polyline points="4712.1 2086.1 4638.6 2086.1"/>
   <polyline points="4638.6 2236.1 4638.6 2086.1"/>
   <polyline points="4712.1 2236.1 4638.6 2236.1"/>
   <polyline points="4712.1 2236.1 4712.1 2386.1"/>
   <polyline points="4712.1 2386.1 4569.6 2386.1"/>
   <polyline points="4569.6 2386.1 4569.6 2312.6"/>
   <polyline points="4427.1 2312.6 4569.6 2312.6"/>
   <polyline points="4427.1 2386.1 4427.1 2312.6"/>
   <polyline points="4427.1 2386.1 4284.6 2386.1"/>
   <polyline points="4284.6 2386.1 4284.6 2312.6"/>
   <polyline points="4142.1 2312.6 4284.6 2312.6"/>
   <polyline points="4142.1 2386.1 4142.1 2312.6"/>
   <polyline points="4142.1 2386.1 3999.6 2386.1"/>
   <polyline points="3999.6 2161.1 3999.6 2386.1"/>
   <polyline points="3999.6 2161.1 3924.6 2161.1"/>
   <polyline points="3924.6 2161.1 3924.6 2386.1"/>
   <polyline points="3924.6 2386.1 3654.6 2386.1"/>
   <polyline points="3654.6 2386.1 3654.6 2312.6"/>
   <polyline points="3384.6 2312.6 3654.6 2312.6"/>
   <polyline points="3384.6 2386.1 3384.6 2312.6"/>
   <polyline points="3384.6 2386.1 3114.6 2386.1"/>
   <polyline points="3213.6 2086.1 3213.6 2236.1"/>
   <polyline points="3213.6 2236.1 3285.6 2236.1"/>
   <polyline points="3285.6 2086.1 3285.6 2236.1"/>
   <polyline points="3213.6 2086.1 3285.6 2086.1"/>
   <polyline points="1788.6 2086.1 1788.6 2236.1"/>
   <polyline points="1788.6 2236.1 1860.6 2236.1"/>
   <polyline points="1860.6 2086.1 1860.6 2236.1"/>
   <polyline points="1788.6 2086.1 1860.6 2086.1"/>
   <polyline points="7054 1687.3 7054 1590.4"/>
   <polyline points="7127.5 1687.3 7054 1687.3"/>
   <polyline points="7127.5 1953.2 7054 1953.2"/>
   <polyline points="7127.5 2219.1 7054 2219.1"/>
   <polyline points="7127.5 2485 7054 2485"/>
   <polyline points="7054 2751 7054 2485"/>
   <polyline points="7127.5 2751 7054 2751"/>
   <polyline points="6977.5 3016.8 7127.5 3016.8"/>
   <polyline points="6827.5 2943.4 6977.5 2943.4"/>
   <polyline points="6677.5 3016.8 6827.5 3016.8"/>
   <polyline points="6677.5 91.854 6677.5 3016.8"/>
   <polyline points="6677.5 91.854 6827.5 91.854"/>
   <polyline points="6827.5 91.854 6827.5 165.35"/>
   <polyline points="6977.5 165.35 6827.5 165.35"/>
   <polyline points="6977.5 91.854 6977.5 165.35"/>
   <polyline points="6977.5 91.854 7127.5 91.854"/>
   <polyline points="7127.5 91.854 7127.5 357.76"/>
   <polyline points="7127.5 357.76 7054 357.76"/>
   <polyline points="7054 623.67 7054 357.76"/>
   <polyline points="7127.5 623.67 7054 623.67"/>
   <polyline points="7127.5 889.58 7054 889.58"/>
   <polyline points="7054 1155.5 7054 889.58"/>
   <polyline points="7127.5 1155.5 7054 1155.5"/>
   <polyline points="7127.5 1421.4 7054 1421.4"/>
   <polyline points="6902.5 1518.4 7054 1518.4"/>
   <polyline points="6902.5 1590.4 6902.5 1518.4"/>
   <polyline points="6902.5 1590.4 7054 1590.4"/>
   <polyline points="7054 2219.1 7054 1953.2"/>
   <polyline points="7127.5 2751 7127.5 3016.8"/>
   <polyline points="7127.5 2219.1 7127.5 2485"/>
   <polyline points="7127.5 1687.3 7127.5 1953.2"/>
   <polyline points="7127.5 1155.5 7127.5 1421.4"/>
   <polyline points="7127.5 623.67 7127.5 889.58"/>
   <polyline points="7054 1518.4 7054 1421.4"/>
   <polyline points="6977.5 3016.8 6977.5 2943.4"/>
   <polyline points="6827.5 3016.8 6827.5 2943.4"/>
   <polyline points="1551 3273.4 1313.2 3273.4"/>
   <polyline points="1313.2 3346.9 1313.2 3273.4"/>
   <polyline points="1075.4 3346.9 1313.2 3346.9"/>
   <polyline points="1075.4 3346.9 1075.4 3273.4"/>
   <polyline points="1075.4 3273.4 837.54 3273.4"/>
   <polyline points="837.54 3346.9 837.54 3273.4"/>
   <polyline points="599.71 3346.9 837.54 3346.9"/>
   <polyline points="599.71 3346.9 599.71 3273.4"/>
   <polyline points="599.71 3273.4 361.87 3273.4"/>
   <polyline points="361.87 3346.9 361.87 3273.4"/>
   <polyline points="124.04 3346.9 361.87 3346.9"/>
   <polyline points="124.04 3346.9 124.04 3199.9"/>
   <polyline points="50.54 3199.9 124.04 3199.9"/>
   <polyline points="50.54 3043.9 50.54 3199.9"/>
   <polyline points="50.54 3043.9 124.04 3043.9"/>
   <polyline points="124.04 3043.9 124.04 2896.9"/>
   <polyline points="124.04 2896.9 2264.5 2896.9"/>
   <polyline points="2264.5 2896.9 2264.5 3043.9"/>
   <polyline points="2336.5 3043.9 2264.5 3043.9"/>
   <polyline points="2336.5 2896.9 2336.5 3043.9"/>
   <polyline points="2336.5 2896.9 3989.5 2896.9"/>
   <polyline points="3989.5 2896.9 3989.5 3043.9"/>
   <polyline points="4061.5 3043.9 3989.5 3043.9"/>
   <polyline points="4061.5 2896.9 4061.5 3043.9"/>
   <polyline points="5338 3043.9 5338 3199.9"/>
   <polyline points="5338 3199.9 5264.5 3199.9"/>
   <polyline points="5264.5 3199.9 5264.5 3346.9"/>
   <polyline points="5023.9 3346.9 5264.5 3346.9"/>
   <polyline points="5023.9 3346.9 5023.9 3273.4"/>
   <polyline points="5023.9 3273.4 4783.3 3273.4"/>
   <polyline points="4542.7 3346.9 4783.3 3346.9"/>
   <polyline points="4542.7 3346.9 4542.7 3273.4"/>
   <polyline points="4542.7 3273.4 4302.1 3273.4"/>
   <polyline points="4302.1 3346.9 4302.1 3273.4"/>
   <polyline points="4061.5 3346.9 4302.1 3346.9"/>
   <polyline points="4061.5 3199.9 4061.5 3346.9"/>
   <polyline points="4061.5 3199.9 3989.5 3199.9"/>
   <polyline points="3989.5 3199.9 3989.5 3346.9"/>
   <polyline points="3753.4 3346.9 3989.5 3346.9"/>
   <polyline points="3753.4 3346.9 3753.4 3273.4"/>
   <polyline points="3753.4 3273.4 3517.2 3273.4"/>
   <polyline points="3517.2 3346.9 3517.2 3273.4"/>
   <polyline points="3281.1 3346.9 3517.2 3346.9"/>
   <polyline points="3281.1 3346.9 3281.1 3273.4"/>
   <polyline points="3281.1 3273.4 3045 3273.4"/>
   <polyline points="3045 3346.9 3045 3273.4"/>
   <polyline points="2808.8 3346.9 3045 3346.9"/>
   <polyline points="2808.8 3346.9 2808.8 3273.4"/>
   <polyline points="2808.8 3273.4 2572.7 3273.4"/>
   <polyline points="2572.7 3346.9 2572.7 3273.4"/>
   <polyline points="2336.5 3346.9 2572.7 3346.9"/>
   <polyline points="2336.5 3199.9 2336.5 3346.9"/>
   <polyline points="2336.5 3199.9 2264.5 3199.9"/>
   <polyline points="2264.5 3199.9 2264.5 3346.9"/>
   <polyline points="2026.7 3346.9 2264.5 3346.9"/>
   <polyline points="2026.7 3346.9 2026.7 3273.4"/>
   <polyline points="2026.7 3273.4 1788.9 3273.4"/>
   <polyline points="1788.9 3346.9 1788.9 3273.4"/>
   <polyline points="1551 3346.9 1788.9 3346.9"/>
   <polyline points="1551 3346.9 1551 3273.4"/>
   <polyline points="5264.5 2896.9 5264.5 3043.9"/>
   <polyline points="5338 3043.9 5264.5 3043.9"/>
   <polyline points="4061.5 2896.9 5264.5 2896.9"/>
   <polyline points="4783.3 3346.9 4783.3 3273.4"/>
   <polyline points="6894.9 4837.6 6821.4 4837.6"/>
   <polyline points="6821.4 5091.8 6821.4 4837.6"/>
   <polyline points="6894.9 5091.8 6821.4 5091.8"/>
   <polyline points="6669.9 5346 6669.9 3058.5"/>
   <polyline points="6669.9 3058.5 6894.9 3058.5"/>
   <polyline points="6894.9 3312.6 6894.9 3058.5"/>
   <polyline points="6894.9 3312.6 6821.4 3312.6"/>
   <polyline points="6821.4 3566.8 6821.4 3312.6"/>
   <polyline points="6894.9 3566.8 6821.4 3566.8"/>
   <polyline points="6894.9 3821 6821.4 3821"/>
   <polyline points="6821.4 4075.1 6821.4 3821"/>
   <polyline points="6894.9 4075.1 6821.4 4075.1"/>
   <polyline points="6894.9 4329.3 6821.4 4329.3"/>
   <polyline points="6821.4 4583.5 6821.4 4329.3"/>
   <polyline points="6894.9 4583.5 6821.4 4583.5"/>
   <polyline points="6669.9 5346 6894.9 5346"/>
   <polyline points="6894.9 5346 6894.9 5091.8"/>
   <polyline points="6894.9 3821 6894.9 3566.8"/>
   <polyline points="6894.9 4329.3 6894.9 4075.1"/>
   <polyline points="6894.9 4837.6 6894.9 4583.5"/>
   <polyline points="3402.3 4812.3 3402.3 4738.8"/>
   <polyline points="3148.1 4738.8 3402.3 4738.8"/>
   <polyline points="3148.1 4812.3 3148.1 4738.8"/>
   <polyline points="2894 4812.3 3148.1 4812.3"/>
   <polyline points="2894 4587.3 2894 4812.3"/>
   <polyline points="2894 4587.3 5181.5 4587.3"/>
   <polyline points="5181.5 4587.3 5181.5 4812.3"/>
   <polyline points="4927.3 4812.3 5181.5 4812.3"/>
   <polyline points="4164.8 4738.8 4419 4738.8"/>
   <polyline points="4164.8 4812.3 4164.8 4738.8"/>
   <polyline points="3910.6 4812.3 4164.8 4812.3"/>
   <polyline points="3910.6 4812.3 3910.6 4738.8"/>
   <polyline points="3656.5 4738.8 3910.6 4738.8"/>
   <polyline points="3656.5 4812.3 3656.5 4738.8"/>
   <polyline points="3402.3 4812.3 3656.5 4812.3"/>
   <polyline points="4673.1 4812.3 4673.1 4738.8"/>
   <polyline points="4927.3 4812.3 4927.3 4738.8"/>
   <polyline points="4673.1 4738.8 4927.3 4738.8"/>
   <polyline points="4419 4812.3 4419 4738.8"/>
   <polyline points="4419 4812.3 4673.1 4812.3"/>
   <polyline points="593.02 5290.9 314.73 5290.9"/>
   <polyline points="314.73 5364.4 314.73 5290.9"/>
   <polyline points="36.437 5364.4 314.73 5364.4"/>
   <polyline points="36.437 5214.4 36.437 5364.4"/>
   <polyline points="36.437 5214.4 109.94 5214.4"/>
   <polyline points="109.94 5214.4 109.94 5064.4"/>
   <polyline points="36.437 5064.4 109.94 5064.4"/>
   <polyline points="36.437 4914.4 36.437 5064.4"/>
   <polyline points="36.437 4914.4 5323.9 4914.4"/>
   <polyline points="5323.9 4914.4 5323.9 5064.4"/>
   <polyline points="5323.9 5064.4 5250.4 5064.4"/>
   <polyline points="5250.4 5064.4 5250.4 5214.4"/>
   <polyline points="5323.9 5214.4 5250.4 5214.4"/>
   <polyline points="5323.9 5214.4 5323.9 5364.4"/>
   <polyline points="5045.6 5364.4 5323.9 5364.4"/>
   <polyline points="5045.6 5364.4 5045.6 5290.9"/>
   <polyline points="5045.6 5290.9 4767.4 5290.9"/>
   <polyline points="4767.4 5364.4 4767.4 5290.9"/>
   <polyline points="4489.1 5364.4 4767.4 5364.4"/>
   <polyline points="4489.1 5364.4 4489.1 5290.9"/>
   <polyline points="4489.1 5290.9 4210.8 5290.9"/>
   <polyline points="4210.8 5364.4 4210.8 5290.9"/>
   <polyline points="3932.5 5364.4 4210.8 5364.4"/>
   <polyline points="3932.5 5364.4 3932.5 5290.9"/>
   <polyline points="3932.5 5290.9 3654.2 5290.9"/>
   <polyline points="3654.2 5364.4 3654.2 5290.9"/>
   <polyline points="3375.9 5364.4 3654.2 5364.4"/>
   <polyline points="3375.9 5364.4 3375.9 5290.9"/>
   <polyline points="3375.9 5290.9 3097.6 5290.9"/>
   <polyline points="3097.6 5364.4 3097.6 5290.9"/>
   <polyline points="2819.3 5364.4 3097.6 5364.4"/>
   <polyline points="2819.3 5364.4 2819.3 5290.9"/>
   <polyline points="2819.3 5290.9 2541 5290.9"/>
   <polyline points="2541 5364.4 2541 5290.9"/>
   <polyline points="2262.8 5364.4 2541 5364.4"/>
   <polyline points="2262.8 5364.4 2262.8 5290.9"/>
   <polyline points="2262.8 5290.9 1984.5 5290.9"/>
   <polyline points="1984.5 5364.4 1984.5 5290.9"/>
   <polyline points="1706.2 5364.4 1984.5 5364.4"/>
   <polyline points="1706.2 5364.4 1706.2 5290.9"/>
   <polyline points="1706.2 5290.9 1427.9 5290.9"/>
   <polyline points="1427.9 5364.4 1427.9 5290.9"/>
   <polyline points="1149.6 5364.4 1149.6 5290.9"/>
   <polyline points="1149.6 5290.9 871.31 5290.9"/>
   <polyline points="593.02 5364.4 593.02 5290.9"/>
   <polyline points="871.31 5364.4 871.31 5290.9"/>
   <polyline points="1149.6 5364.4 1427.9 5364.4"/>
   <polyline points="593.02 5364.4 871.31 5364.4"/>
   <polyline points="6606.4 3343.1 6532.9 3343.1"/>
   <polyline points="6532.9 3592.1 6532.9 3343.1"/>
   <polyline points="6606.4 3592.1 6532.9 3592.1"/>
   <polyline points="6606.4 3841.1 6606.4 3592.1"/>
   <polyline points="6606.4 3841.1 6532.9 3841.1"/>
   <polyline points="6532.9 4090.1 6532.9 3841.1"/>
   <polyline points="6606.4 4090.1 6532.9 4090.1"/>
   <polyline points="6606.4 4339.1 6606.4 4090.1"/>
   <polyline points="6606.4 4339.1 6532.9 4339.1"/>
   <polyline points="6532.9 4588.1 6532.9 4339.1"/>
   <polyline points="6606.4 4588.1 6532.9 4588.1"/>
   <polyline points="6456.4 5335.1 6606.4 5335.1"/>
   <polyline points="6456.4 5335.1 6456.4 5261.6"/>
   <polyline points="6306.4 5261.6 6456.4 5261.6"/>
   <polyline points="6306.4 5335.1 6306.4 5261.6"/>
   <polyline points="6156.4 5335.1 6306.4 5335.1"/>
   <polyline points="6156.4 5335.1 6156.4 2596.1"/>
   <polyline points="6303.4 2596.1 6156.4 2596.1"/>
   <polyline points="6303.4 2524.1 6303.4 2596.1"/>
   <polyline points="6303.4 2524.1 6156.4 2524.1"/>
   <polyline points="6156.4 2524.1 6156.4 47.606"/>
   <polyline points="6156.4 47.606 6306.4 47.606"/>
   <polyline points="6306.4 47.606 6306.4 121.11"/>
   <polyline points="6456.4 121.11 6306.4 121.11"/>
   <polyline points="6456.4 47.606 6456.4 121.11"/>
   <polyline points="6456.4 47.606 6606.4 47.606"/>
   <polyline points="6606.4 322.77 6606.4 47.606"/>
   <polyline points="6606.4 322.77 6532.9 322.77"/>
   <polyline points="6532.9 597.94 6532.9 322.77"/>
   <polyline points="6606.4 597.94 6532.9 597.94"/>
   <polyline points="6606.4 873.11 6606.4 597.94"/>
   <polyline points="6606.4 873.11 6532.9 873.11"/>
   <polyline points="6532.9 1148.3 6532.9 873.11"/>
   <polyline points="6606.4 1148.3 6532.9 1148.3"/>
   <polyline points="6606.4 1423.4 6606.4 1148.3"/>
   <polyline points="6606.4 1423.4 6532.9 1423.4"/>
   <polyline points="6532.9 1698.6 6532.9 1423.4"/>
   <polyline points="6606.4 1698.6 6532.9 1698.6"/>
   <polyline points="6606.4 1973.8 6606.4 1698.6"/>
   <polyline points="6606.4 1973.8 6532.9 1973.8"/>
   <polyline points="6532.9 2248.9 6532.9 1973.8"/>
   <polyline points="6606.4 2248.9 6532.9 2248.9"/>
   <polyline points="6606.4 2524.1 6606.4 2248.9"/>
   <polyline points="6606.4 2524.1 6459.4 2524.1"/>
   <polyline points="6459.4 2524.1 6459.4 2596.1"/>
   <polyline points="6606.4 2596.1 6459.4 2596.1"/>
   <polyline points="6606.4 2845.1 6606.4 2596.1"/>
   <polyline points="6606.4 2845.1 6532.9 2845.1"/>
   <polyline points="6532.9 3094.1 6532.9 2845.1"/>
   <polyline points="6606.4 3094.1 6532.9 3094.1"/>
   <polyline points="6606.4 3343.1 6606.4 3094.1"/>
   <polyline points="6606.4 5335.1 6606.4 5086.1"/>
   <polyline points="6606.4 4837.1 6606.4 4588.1"/>
   <polyline points="6532.9 5086.1 6532.9 4837.1"/>
   <polyline points="6606.4 4837.1 6532.9 4837.1"/>
   <polyline points="6606.4 5086.1 6532.9 5086.1"/>
   <polyline points="6105.4 884.39 6031.9 884.39"/>
   <polyline points="6031.9 1162.7 6031.9 884.39"/>
   <polyline points="6105.4 1162.7 6031.9 1162.7"/>
   <polyline points="6105.4 1441 6105.4 1162.7"/>
   <polyline points="6105.4 1441 6031.9 1441"/>
   <polyline points="6031.9 1719.3 6031.9 1441"/>
   <polyline points="6105.4 1719.3 6031.9 1719.3"/>
   <polyline points="6105.4 1997.5 6105.4 1719.3"/>
   <polyline points="6105.4 1997.5 6031.9 1997.5"/>
   <polyline points="6031.9 2275.8 6031.9 1997.5"/>
   <polyline points="6105.4 2275.8 6031.9 2275.8"/>
   <polyline points="6105.4 2554.1 6105.4 2275.8"/>
   <polyline points="6105.4 2554.1 6031.9 2554.1"/>
   <polyline points="6031.9 2832.4 6031.9 2554.1"/>
   <polyline points="6105.4 2832.4 6031.9 2832.4"/>
   <polyline points="6105.4 3110.7 6105.4 2832.4"/>
   <polyline points="6105.4 3110.7 6031.9 3110.7"/>
   <polyline points="6031.9 3389 6031.9 3110.7"/>
   <polyline points="6105.4 3389 6031.9 3389"/>
   <polyline points="6105.4 3667.3 6105.4 3389"/>
   <polyline points="6105.4 3667.3 6031.9 3667.3"/>
   <polyline points="6031.9 3945.6 6031.9 3667.3"/>
   <polyline points="6105.4 3945.6 6031.9 3945.6"/>
   <polyline points="6105.4 4223.9 6105.4 3945.6"/>
   <polyline points="6105.4 4780.4 6031.9 4780.4"/>
   <polyline points="6105.4 5058.7 6031.9 5058.7"/>
   <polyline points="6105.4 5337 6105.4 5058.7"/>
   <polyline points="5955.4 5337 6105.4 5337"/>
   <polyline points="5955.4 5337 5955.4 5263.5"/>
   <polyline points="5805.4 5263.5 5955.4 5263.5"/>
   <polyline points="5805.4 5337 5805.4 5263.5"/>
   <polyline points="5655.4 5337 5805.4 5337"/>
   <polyline points="5655.4 5337 5655.4 49.518"/>
   <polyline points="5655.4 49.518 5805.4 49.518"/>
   <polyline points="5805.4 49.518 5805.4 123.02"/>
   <polyline points="5955.4 123.02 5805.4 123.02"/>
   <polyline points="5955.4 49.518 5955.4 123.02"/>
   <polyline points="5955.4 49.518 6105.4 49.518"/>
   <polyline points="6105.4 327.81 6105.4 49.518"/>
   <polyline points="6105.4 327.81 6031.9 327.81"/>
   <polyline points="6031.9 606.1 6031.9 327.81"/>
   <polyline points="6105.4 606.1 6031.9 606.1"/>
   <polyline points="6105.4 884.39 6105.4 606.1"/>
   <polyline points="6105.4 4780.4 6105.4 4502.2"/>
   <polyline points="6031.9 4502.2 6031.9 4223.9"/>
   <polyline points="6105.4 4223.9 6031.9 4223.9"/>
   <polyline points="6105.4 4502.2 6031.9 4502.2"/>
   <polyline points="6031.9 5058.7 6031.9 4780.4"/>
   <polyline points="3112.9 3838.2 3112.9 3764.6"/>
   <polyline points="2857.3 3764.6 3112.9 3764.6"/>
   <polyline points="2857.3 3838.2 2857.3 3764.6"/>
   <polyline points="2601.7 3838.2 2857.3 3838.2"/>
   <polyline points="2601.7 3838.2 2601.7 3691.2"/>
   <polyline points="2601.7 3691.2 2529.7 3691.2"/>
   <polyline points="2529.7 3838.2 2529.7 3691.2"/>
   <polyline points="2262.7 3838.2 2529.7 3838.2"/>
   <polyline points="1728.7 3838.2 1728.7 3764.6"/>
   <polyline points="1461.7 3764.6 1728.7 3764.6"/>
   <polyline points="927.69 3838.2 927.69 3764.6"/>
   <polyline points="660.69 3838.2 660.69 3764.6"/>
   <polyline points="393.69 3764.6 660.69 3764.6"/>
   <polyline points="393.69 3838.2 393.69 3764.6"/>
   <polyline points="126.69 3691.2 126.69 3838.2"/>
   <polyline points="53.188 3691.2 126.69 3691.2"/>
   <polyline points="53.188 3535.2 53.188 3691.2"/>
   <polyline points="53.188 3535.2 126.69 3535.2"/>
   <polyline points="126.69 3388.2 126.69 3535.2"/>
   <polyline points="126.69 3388.2 2529.7 3388.2"/>
   <polyline points="2529.7 3535.2 2529.7 3388.2"/>
   <polyline points="2601.7 3535.2 2529.7 3535.2"/>
   <polyline points="2601.7 3535.2 2601.7 3388.2"/>
   <polyline points="2601.7 3388.2 3879.7 3388.2"/>
   <polyline points="3879.7 3535.2 3879.7 3388.2"/>
   <polyline points="3951.7 3535.2 3879.7 3535.2"/>
   <polyline points="3951.7 3535.2 3951.7 3388.2"/>
   <polyline points="3951.7 3388.2 5454.7 3388.2"/>
   <polyline points="5454.7 3388.2 5454.7 3535.2"/>
   <polyline points="5454.7 3691.2 5454.7 3838.2"/>
   <polyline points="5240 3838.2 5454.7 3838.2"/>
   <polyline points="5240 3838.2 5240 3764.6"/>
   <polyline points="5025.3 3764.6 5240 3764.6"/>
   <polyline points="5025.3 3838.2 5025.3 3764.6"/>
   <polyline points="4810.5 3838.2 5025.3 3838.2"/>
   <polyline points="4810.5 3838.2 4810.5 3764.6"/>
   <polyline points="4595.8 3764.6 4810.5 3764.6"/>
   <polyline points="4595.8 3838.2 4595.8 3764.6"/>
   <polyline points="4381.1 3838.2 4595.8 3838.2"/>
   <polyline points="4381.1 3838.2 4381.1 3764.6"/>
   <polyline points="4166.4 3764.6 4381.1 3764.6"/>
   <polyline points="4166.4 3838.2 4166.4 3764.6"/>
   <polyline points="3951.7 3838.2 4166.4 3838.2"/>
   <polyline points="3951.7 3838.2 3951.7 3691.2"/>
   <polyline points="3951.7 3691.2 3879.7 3691.2"/>
   <polyline points="3879.7 3838.2 3879.7 3691.2"/>
   <polyline points="3624.1 3838.2 3879.7 3838.2"/>
   <polyline points="3624.1 3838.2 3624.1 3764.6"/>
   <polyline points="3368.5 3764.6 3624.1 3764.6"/>
   <polyline points="3368.5 3838.2 3368.5 3764.6"/>
   <polyline points="3112.9 3838.2 3368.5 3838.2"/>
   <polyline points="1461.7 3838.2 1461.7 3764.6"/>
   <polyline points="1995.7 3764.6 2262.7 3764.6"/>
   <polyline points="1995.7 3838.2 1995.7 3764.6"/>
   <polyline points="5528.2 3535.2 5528.2 3691.2"/>
   <polyline points="126.69 3838.2 393.69 3838.2"/>
   <polyline points="1728.7 3838.2 1995.7 3838.2"/>
   <polyline points="1194.7 3838.2 1461.7 3838.2"/>
   <polyline points="660.69 3838.2 927.69 3838.2"/>
   <polyline points="5454.7 3691.2 5528.2 3691.2"/>
   <polyline points="5454.7 3535.2 5528.2 3535.2"/>
   <polyline points="2262.7 3838.2 2262.7 3764.6"/>
   <polyline points="927.69 3764.6 1194.7 3764.6"/>
   <polyline points="1194.7 3838.2 1194.7 3764.6"/>
  </g>
 </g>
</svg>
