<?xml version="1.0" encoding="UTF-8" standalone="no"?>
<svg width="609.6mm" height="304.8mm"
 viewBox="0 0 7200 3600"
 xmlns="http://www.w3.org/2000/svg" xmlns:xlink="http://www.w3.org/1999/xlink"  version="1.2" baseProfile="tiny">
<defs>
</defs>
<g fill="none" stroke="black" stroke-width="1" fill-rule="evenodd" stroke-linecap="square" stroke-linejoin="bevel" >

<g fill="#ffffff" fill-opacity="1" stroke="none" transform="matrix(1,0,0,1,0,0)"
font-family="Arial" font-size="12" font-weight="400" font-style="normal" 
>
<rect x="0" y="0" width="7200" height="3600"/>
</g>

<g fill="none" stroke="#000000" stroke-opacity="1" stroke-width="1" stroke-linecap="square" stroke-linejoin="bevel" transform="matrix(1,0,0,1,0,0)"
font-family="Arial" font-size="12" font-weight="400" font-style="normal" 
>
</g>

<g fill="#000000" fill-opacity="1" stroke="#000000" stroke-opacity="1" stroke-width="1" stroke-linecap="butt" stroke-linejoin="miter" stroke-miterlimit="2" transform="matrix(1,0,0,1,0,0)"
font-family="Arial" font-size="12" font-weight="400" font-style="normal" 
>
</g>

<g fill="#000000" fill-opacity="1" stroke="#000000" stroke-opacity="1" stroke-width="5" stroke-linecap="round" stroke-linejoin="bevel" transform="matrix(1,0,0,1,0,0)"
font-family="Arial" font-size="12" font-weight="400" font-style="normal" 
>
<polyline fill="none" vector-effect="none" points="2800.51,2283.77 2800.51,2210.27 " />
<polyline fill="none" vector-effect="none" points="2564.37,2210.27 2800.51,2210.27 " />
<polyline fill="none" vector-effect="none" points="2564.37,2283.77 2564.37,2210.27 " />
<polyline fill="none" vector-effect="none" points="2328.23,2283.77 2328.23,2210.27 " />
<polyline fill="none" vector-effect="none" points="2092.08,2210.27 2328.23,2210.27 " />
<polyline fill="none" vector-effect="none" points="2092.08,2283.77 2092.08,2210.27 " />
<polyline fill="none" vector-effect="none" points="1855.94,2283.77 1855.94,2136.77 " />
<polyline fill="none" vector-effect="none" points="1855.94,2136.77 1783.94,2136.77 " />
<polyline fill="none" vector-effect="none" points="1783.94,2283.77 1783.94,2136.77 " />
<polyline fill="none" vector-effect="none" points="1783.94,2283.77 1547.8,2283.77 " />
<polyline fill="none" vector-effect="none" points="1547.8,2283.77 1547.8,2210.27 " />
<polyline fill="none" vector-effect="none" points="1311.65,2210.27 1547.8,2210.27 " />
<polyline fill="none" vector-effect="none" points="1311.65,2283.77 1311.65,2210.27 " />
<polyline fill="none" vector-effect="none" points="1311.65,2283.77 1075.51,2283.77 " />
<polyline fill="none" vector-effect="none" points="1075.51,2283.77 1075.51,2210.27 " />
<polyline fill="none" vector-effect="none" points="839.368,2210.27 1075.51,2210.27 " />
<polyline fill="none" vector-effect="none" points="839.368,2283.77 839.368,2210.27 " />
<polyline fill="none" vector-effect="none" points="839.368,2283.77 603.225,2283.77 " />
<polyline fill="none" vector-effect="none" points="603.225,2283.77 603.225,2210.27 " />
<polyline fill="none" vector-effect="none" points="367.083,2210.27 603.225,2210.27 " />
<polyline fill="none" vector-effect="none" points="367.083,2283.77 367.083,2210.27 " />
<polyline fill="none" vector-effect="none" points="367.083,2283.77 130.94,2283.77 " />
<polyline fill="none" vector-effect="none" points="130.94,2136.77 130.94,2283.77 " />
<polyline fill="none" vector-effect="none" points="57.4397,2136.77 130.94,2136.77 " />
<polyline fill="none" vector-effect="none" points="57.4397,1980.77 57.4397,2136.77 " />
<polyline fill="none" vector-effect="none" points="57.4397,1980.77 130.94,1980.77 " />
<polyline fill="none" vector-effect="none" points="130.94,1833.77 130.94,1980.77 " />
<polyline fill="none" vector-effect="none" points="1783.94,1833.77 130.94,1833.77 " />
<polyline fill="none" vector-effect="none" points="1783.94,1980.77 1783.94,1833.77 " />
<polyline fill="none" vector-effect="none" points="1855.94,1980.77 1783.94,1980.77 " />
<polyline fill="none" vector-effect="none" points="1855.94,1980.77 1855.94,1833.77 " />
<polyline fill="none" vector-effect="none" points="3508.94,1833.77 1855.94,1833.77 " />
<polyline fill="none" vector-effect="none" points="3508.94,1833.77 3508.94,1980.77 " />
<polyline fill="none" vector-effect="none" points="3508.94,1980.77 3580.94,1980.77 " />
<polyline fill="none" vector-effect="none" points="3580.94,1833.77 3580.94,1980.77 " />
<polyline fill="none" vector-effect="none" points="4446.44,1833.77 3580.94,1833.77 " />
<polyline fill="none" vector-effect="none" points="4446.44,1833.77 4446.44,1980.77 " />
<polyline fill="none" vector-effect="none" points="4446.44,1980.77 4518.44,1980.77 " />
<polyline fill="none" vector-effect="none" points="4518.44,1833.77 4518.44,1980.77 " />
<polyline fill="none" vector-effect="none" points="5383.94,1833.77 4518.44,1833.77 " />
<polyline fill="none" vector-effect="none" points="5383.94,1980.77 5383.94,1833.77 " />
<polyline fill="none" vector-effect="none" points="5457.44,1980.77 5383.94,1980.77 " />
<polyline fill="none" vector-effect="none" points="5457.44,1980.77 5457.44,2136.77 " />
<polyline fill="none" vector-effect="none" points="5457.44,2136.77 5383.94,2136.77 " />
<polyline fill="none" vector-effect="none" points="5383.94,2283.77 5383.94,2136.77 " />
<polyline fill="none" vector-effect="none" points="5383.94,2283.77 5210.84,2283.77 " />
<polyline fill="none" vector-effect="none" points="5210.84,2283.77 5210.84,2210.27 " />
<polyline fill="none" vector-effect="none" points="5037.74,2210.27 5210.84,2210.27 " />
<polyline fill="none" vector-effect="none" points="5037.74,2283.77 5037.74,2210.27 " />
<polyline fill="none" vector-effect="none" points="5037.74,2283.77 4864.64,2283.77 " />
<polyline fill="none" vector-effect="none" points="4864.64,2283.77 4864.64,2210.27 " />
<polyline fill="none" vector-effect="none" points="4691.54,2210.27 4864.64,2210.27 " />
<polyline fill="none" vector-effect="none" points="4691.54,2283.77 4691.54,2210.27 " />
<polyline fill="none" vector-effect="none" points="4691.54,2283.77 4518.44,2283.77 " />
<polyline fill="none" vector-effect="none" points="4518.44,2136.77 4518.44,2283.77 " />
<polyline fill="none" vector-effect="none" points="4446.44,2136.77 4518.44,2136.77 " />
<polyline fill="none" vector-effect="none" points="4446.44,2136.77 4446.44,2283.77 " />
<polyline fill="none" vector-effect="none" points="4446.44,2283.77 4273.34,2283.77 " />
<polyline fill="none" vector-effect="none" points="4273.34,2283.77 4273.34,2210.27 " />
<polyline fill="none" vector-effect="none" points="4100.24,2210.27 4273.34,2210.27 " />
<polyline fill="none" vector-effect="none" points="4100.24,2283.77 4100.24,2210.27 " />
<polyline fill="none" vector-effect="none" points="4100.24,2283.77 3927.14,2283.77 " />
<polyline fill="none" vector-effect="none" points="3927.14,2283.77 3927.14,2210.27 " />
<polyline fill="none" vector-effect="none" points="3754.04,2210.27 3927.14,2210.27 " />
<polyline fill="none" vector-effect="none" points="3754.04,2283.77 3754.04,2210.27 " />
<polyline fill="none" vector-effect="none" points="3754.04,2283.77 3580.94,2283.77 " />
<polyline fill="none" vector-effect="none" points="3580.94,2136.77 3580.94,2283.77 " />
<polyline fill="none" vector-effect="none" points="3508.94,2136.77 3580.94,2136.77 " />
<polyline fill="none" vector-effect="none" points="3508.94,2136.77 3508.94,2283.77 " />
<polyline fill="none" vector-effect="none" points="3508.94,2283.77 3272.8,2283.77 " />
<polyline fill="none" vector-effect="none" points="3272.8,2283.77 3272.8,2210.27 " />
<polyline fill="none" vector-effect="none" points="3036.65,2210.27 3272.8,2210.27 " />
<polyline fill="none" vector-effect="none" points="3036.65,2283.77 3036.65,2210.27 " />
<polyline fill="none" vector-effect="none" points="2092.08,2283.77 1855.94,2283.77 " />
<polyline fill="none" vector-effect="none" points="2564.37,2283.77 2328.23,2283.77 " />
<polyline fill="none" vector-effect="none" points="3036.65,2283.77 2800.51,2283.77 " />
<polyline fill="none" vector-effect="none" points="4155.14,1554.77 3897.57,1554.77 " />
<polyline fill="none" vector-effect="none" points="3897.57,1628.27 3897.57,1554.77 " />
<polyline fill="none" vector-effect="none" points="3897.57,1628.27 3640,1628.27 " />
<polyline fill="none" vector-effect="none" points="3640,1481.27 3640,1628.27 " />
<polyline fill="none" vector-effect="none" points="3640,1481.27 3568,1481.27 " />
<polyline fill="none" vector-effect="none" points="3568,1481.27 3568,1628.27 " />
<polyline fill="none" vector-effect="none" points="3568,1628.27 3331.85,1628.27 " />
<polyline fill="none" vector-effect="none" points="3331.85,1628.27 3331.85,1554.77 " />
<polyline fill="none" vector-effect="none" points="3331.85,1554.77 3095.71,1554.77 " />
<polyline fill="none" vector-effect="none" points="3095.71,1628.27 3095.71,1554.77 " />
<polyline fill="none" vector-effect="none" points="3095.71,1628.27 2859.57,1628.27 " />
<polyline fill="none" vector-effect="none" points="2859.57,1628.27 2859.57,1554.77 " />
<polyline fill="none" vector-effect="none" points="2859.57,1554.77 2623.42,1554.77 " />
<polyline fill="none" vector-effect="none" points="2623.42,1628.27 2623.42,1554.77 " />
<polyline fill="none" vector-effect="none" points="2623.42,1628.27 2387.28,1628.27 " />
<polyline fill="none" vector-effect="none" points="2387.28,1628.27 2387.28,1554.77 " />
<polyline fill="none" vector-effect="none" points="2387.28,1554.77 2151.14,1554.77 " />
<polyline fill="none" vector-effect="none" points="2151.14,1628.27 2151.14,1554.77 " />
<polyline fill="none" vector-effect="none" points="2151.14,1628.27 1915,1628.27 " />
<polyline fill="none" vector-effect="none" points="1915,1628.27 1915,1481.27 " />
<polyline fill="none" vector-effect="none" points="1843,1481.27 1915,1481.27 " />
<polyline fill="none" vector-effect="none" points="1843,1628.27 1843,1481.27 " />
<polyline fill="none" vector-effect="none" points="1606.85,1628.27 1606.85,1554.77 " />
<polyline fill="none" vector-effect="none" points="1370.71,1628.27 1370.71,1554.77 " />
<polyline fill="none" vector-effect="none" points="898.424,1628.27 898.424,1554.77 " />
<polyline fill="none" vector-effect="none" points="662.282,1628.27 662.282,1554.77 " />
<polyline fill="none" vector-effect="none" points="662.282,1554.77 426.139,1554.77 " />
<polyline fill="none" vector-effect="none" points="426.139,1628.27 426.139,1554.77 " />
<polyline fill="none" vector-effect="none" points="189.996,1481.27 189.996,1628.27 " />
<polyline fill="none" vector-effect="none" points="189.996,1178.27 189.996,1325.27 " />
<polyline fill="none" vector-effect="none" points="1843,1178.27 189.996,1178.27 " />
<polyline fill="none" vector-effect="none" points="1843,1325.27 1843,1178.27 " />
<polyline fill="none" vector-effect="none" points="1843,1325.27 1915,1325.27 " />
<polyline fill="none" vector-effect="none" points="1915,1325.27 1915,1178.27 " />
<polyline fill="none" vector-effect="none" points="3568,1178.27 1915,1178.27 " />
<polyline fill="none" vector-effect="none" points="3568,1178.27 3568,1325.27 " />
<polyline fill="none" vector-effect="none" points="3640,1325.27 3568,1325.27 " />
<polyline fill="none" vector-effect="none" points="3640,1178.27 3640,1325.27 " />
<polyline fill="none" vector-effect="none" points="5443,1178.27 3640,1178.27 " />
<polyline fill="none" vector-effect="none" points="5443,1325.27 5443,1178.27 " />
<polyline fill="none" vector-effect="none" points="5443,1325.27 5516.5,1325.27 " />
<polyline fill="none" vector-effect="none" points="5516.5,1325.27 5516.5,1481.27 " />
<polyline fill="none" vector-effect="none" points="5443,1481.27 5516.5,1481.27 " />
<polyline fill="none" vector-effect="none" points="5443,1628.27 5443,1481.27 " />
<polyline fill="none" vector-effect="none" points="5443,1628.27 5185.42,1628.27 " />
<polyline fill="none" vector-effect="none" points="5185.42,1628.27 5185.42,1554.77 " />
<polyline fill="none" vector-effect="none" points="5185.42,1554.77 4927.85,1554.77 " />
<polyline fill="none" vector-effect="none" points="4927.85,1628.27 4927.85,1554.77 " />
<polyline fill="none" vector-effect="none" points="4927.85,1628.27 4670.28,1628.27 " />
<polyline fill="none" vector-effect="none" points="4670.28,1628.27 4670.28,1554.77 " />
<polyline fill="none" vector-effect="none" points="4670.28,1554.77 4412.71,1554.77 " />
<polyline fill="none" vector-effect="none" points="4412.71,1628.27 4412.71,1554.77 " />
<polyline fill="none" vector-effect="none" points="4412.71,1628.27 4155.14,1628.27 " />
<polyline fill="none" vector-effect="none" points="4155.14,1628.27 4155.14,1554.77 " />
<polyline fill="none" vector-effect="none" points="1606.85,1554.77 1370.71,1554.77 " />
<polyline fill="none" vector-effect="none" points="1843,1628.27 1606.85,1628.27 " />
<polyline fill="none" vector-effect="none" points="1370.71,1628.27 1134.57,1628.27 " />
<polyline fill="none" vector-effect="none" points="898.424,1628.27 662.282,1628.27 " />
<polyline fill="none" vector-effect="none" points="189.996,1481.27 116.496,1481.27 " />
<polyline fill="none" vector-effect="none" points="189.996,1325.27 116.496,1325.27 " />
<polyline fill="none" vector-effect="none" points="1134.57,1554.77 898.424,1554.77 " />
<polyline fill="none" vector-effect="none" points="426.139,1628.27 189.996,1628.27 " />
<polyline fill="none" vector-effect="none" points="1134.57,1628.27 1134.57,1554.77 " />
<polyline fill="none" vector-effect="none" points="116.496,1325.27 116.496,1481.27 " />
<polyline fill="none" vector-effect="none" points="662.418,567.167 662.418,493.667 " />
<polyline fill="none" vector-effect="none" points="388.888,493.667 662.418,493.667 " />
<polyline fill="none" vector-effect="none" points="388.888,567.167 388.888,493.667 " />
<polyline fill="none" vector-effect="none" points="115.359,417.167 115.359,567.167 " />
<polyline fill="none" vector-effect="none" points="115.359,417.167 188.859,417.167 " />
<polyline fill="none" vector-effect="none" points="188.859,267.167 188.859,417.167 " />
<polyline fill="none" vector-effect="none" points="115.359,267.167 188.859,267.167 " />
<polyline fill="none" vector-effect="none" points="115.359,117.167 115.359,267.167 " />
<polyline fill="none" vector-effect="none" points="115.359,117.167 4765.36,117.167 " />
<polyline fill="none" vector-effect="none" points="4765.36,117.167 4765.36,267.167 " />
<polyline fill="none" vector-effect="none" points="4765.36,267.167 4691.86,267.167 " />
<polyline fill="none" vector-effect="none" points="4691.86,417.167 4691.86,267.167 " />
<polyline fill="none" vector-effect="none" points="4765.36,417.167 4691.86,417.167 " />
<polyline fill="none" vector-effect="none" points="4491.83,567.167 4765.36,567.167 " />
<polyline fill="none" vector-effect="none" points="4218.3,493.667 4491.83,493.667 " />
<polyline fill="none" vector-effect="none" points="3671.24,493.667 3944.77,493.667 " />
<polyline fill="none" vector-effect="none" points="3671.24,567.167 3671.24,493.667 " />
<polyline fill="none" vector-effect="none" points="3397.71,567.167 3397.71,493.667 " />
<polyline fill="none" vector-effect="none" points="3124.18,493.667 3397.71,493.667 " />
<polyline fill="none" vector-effect="none" points="3124.18,567.167 3124.18,493.667 " />
<polyline fill="none" vector-effect="none" points="2850.65,567.167 2850.65,493.667 " />
<polyline fill="none" vector-effect="none" points="2577.12,493.667 2850.65,493.667 " />
<polyline fill="none" vector-effect="none" points="2577.12,567.167 2577.12,493.667 " />
<polyline fill="none" vector-effect="none" points="2303.59,567.167 2303.59,493.667 " />
<polyline fill="none" vector-effect="none" points="2030.06,493.667 2303.59,493.667 " />
<polyline fill="none" vector-effect="none" points="2030.06,567.167 2030.06,493.667 " />
<polyline fill="none" vector-effect="none" points="1756.54,567.167 1756.54,493.667 " />
<polyline fill="none" vector-effect="none" points="1483.01,493.667 1756.54,493.667 " />
<polyline fill="none" vector-effect="none" points="1483.01,567.167 1483.01,493.667 " />
<polyline fill="none" vector-effect="none" points="1209.48,567.167 1209.48,493.667 " />
<polyline fill="none" vector-effect="none" points="935.947,493.667 1209.48,493.667 " />
<polyline fill="none" vector-effect="none" points="935.947,567.167 935.947,493.667 " />
<polyline fill="none" vector-effect="none" points="2404.36,417.167 2476.36,417.167 " />
<polyline fill="none" vector-effect="none" points="2476.36,267.167 2476.36,417.167 " />
<polyline fill="none" vector-effect="none" points="2404.36,267.167 2476.36,267.167 " />
<polyline fill="none" vector-effect="none" points="2404.36,267.167 2404.36,417.167 " />
<polyline fill="none" vector-effect="none" points="4491.83,567.167 4491.83,493.667 " />
<polyline fill="none" vector-effect="none" points="4218.3,567.167 4218.3,493.667 " />
<polyline fill="none" vector-effect="none" points="4765.36,417.167 4765.36,567.167 " />
<polyline fill="none" vector-effect="none" points="3944.77,567.167 3944.77,493.667 " />
<polyline fill="none" vector-effect="none" points="115.359,567.167 388.888,567.167 " />
<polyline fill="none" vector-effect="none" points="2850.65,567.167 3124.18,567.167 " />
<polyline fill="none" vector-effect="none" points="3397.71,567.167 3671.24,567.167 " />
<polyline fill="none" vector-effect="none" points="3944.77,567.167 4218.3,567.167 " />
<polyline fill="none" vector-effect="none" points="2303.59,567.167 2577.12,567.167 " />
<polyline fill="none" vector-effect="none" points="1756.54,567.167 2030.06,567.167 " />
<polyline fill="none" vector-effect="none" points="1209.48,567.167 1483.01,567.167 " />
<polyline fill="none" vector-effect="none" points="662.418,567.167 935.947,567.167 " />
<polyline fill="none" vector-effect="none" points="2471.98,916.309 2471.98,766.309 " />
<polyline fill="none" vector-effect="none" points="2399.98,766.309 2471.98,766.309 " />
<polyline fill="none" vector-effect="none" points="2399.98,916.309 2399.98,766.309 " />
<polyline fill="none" vector-effect="none" points="2399.98,916.309 2471.98,916.309 " />
<polyline fill="none" vector-effect="none" points="3940.39,992.809 3666.86,992.809 " />
<polyline fill="none" vector-effect="none" points="3666.86,1066.31 3666.86,992.809 " />
<polyline fill="none" vector-effect="none" points="3393.33,1066.31 3393.33,992.809 " />
<polyline fill="none" vector-effect="none" points="3393.33,992.809 3119.8,992.809 " />
<polyline fill="none" vector-effect="none" points="3119.8,1066.31 3119.8,992.809 " />
<polyline fill="none" vector-effect="none" points="2846.27,1066.31 2846.27,992.809 " />
<polyline fill="none" vector-effect="none" points="2846.27,992.809 2572.74,992.809 " />
<polyline fill="none" vector-effect="none" points="2572.74,1066.31 2572.74,992.809 " />
<polyline fill="none" vector-effect="none" points="2299.21,1066.31 2299.21,992.809 " />
<polyline fill="none" vector-effect="none" points="2299.21,992.809 2025.68,992.809 " />
<polyline fill="none" vector-effect="none" points="2025.68,1066.31 2025.68,992.809 " />
<polyline fill="none" vector-effect="none" points="1752.15,1066.31 1752.15,992.809 " />
<polyline fill="none" vector-effect="none" points="1752.15,992.809 1478.62,992.809 " />
<polyline fill="none" vector-effect="none" points="1478.62,1066.31 1478.62,992.809 " />
<polyline fill="none" vector-effect="none" points="1205.09,1066.31 1205.09,992.809 " />
<polyline fill="none" vector-effect="none" points="384.506,1066.31 110.976,1066.31 " />
<polyline fill="none" vector-effect="none" points="110.976,916.309 110.976,1066.31 " />
<polyline fill="none" vector-effect="none" points="110.976,916.309 184.476,916.309 " />
<polyline fill="none" vector-effect="none" points="184.476,916.309 184.476,766.309 " />
<polyline fill="none" vector-effect="none" points="110.976,766.309 184.476,766.309 " />
<polyline fill="none" vector-effect="none" points="110.976,616.309 110.976,766.309 " />
<polyline fill="none" vector-effect="none" points="4760.98,616.309 110.976,616.309 " />
<polyline fill="none" vector-effect="none" points="4760.98,616.309 4760.98,766.309 " />
<polyline fill="none" vector-effect="none" points="4760.98,766.309 4687.48,766.309 " />
<polyline fill="none" vector-effect="none" points="4687.48,766.309 4687.48,916.309 " />
<polyline fill="none" vector-effect="none" points="4760.98,916.309 4687.48,916.309 " />
<polyline fill="none" vector-effect="none" points="4760.98,916.309 4760.98,1066.31 " />
<polyline fill="none" vector-effect="none" points="4487.45,1066.31 4487.45,992.809 " />
<polyline fill="none" vector-effect="none" points="4487.45,992.809 4213.92,992.809 " />
<polyline fill="none" vector-effect="none" points="4213.92,1066.31 4213.92,992.809 " />
<polyline fill="none" vector-effect="none" points="3940.39,1066.31 3940.39,992.809 " />
<polyline fill="none" vector-effect="none" points="658.035,992.809 384.506,992.809 " />
<polyline fill="none" vector-effect="none" points="384.506,1066.31 384.506,992.809 " />
<polyline fill="none" vector-effect="none" points="658.035,1066.31 658.035,992.809 " />
<polyline fill="none" vector-effect="none" points="1205.09,992.809 931.565,992.809 " />
<polyline fill="none" vector-effect="none" points="931.565,1066.31 931.565,992.809 " />
<polyline fill="none" vector-effect="none" points="4760.98,1066.31 4487.45,1066.31 " />
<polyline fill="none" vector-effect="none" points="2025.68,1066.31 1752.15,1066.31 " />
<polyline fill="none" vector-effect="none" points="1478.62,1066.31 1205.09,1066.31 " />
<polyline fill="none" vector-effect="none" points="931.565,1066.31 658.035,1066.31 " />
<polyline fill="none" vector-effect="none" points="2572.74,1066.31 2299.21,1066.31 " />
<polyline fill="none" vector-effect="none" points="3119.8,1066.31 2846.27,1066.31 " />
<polyline fill="none" vector-effect="none" points="3666.86,1066.31 3393.33,1066.31 " />
<polyline fill="none" vector-effect="none" points="4213.92,1066.31 3940.39,1066.31 " />
<polyline fill="none" vector-effect="none" points="793.083,2825.11 503.174,2825.11 " />
<polyline fill="none" vector-effect="none" points="503.174,2898.61 503.174,2825.11 " />
<polyline fill="none" vector-effect="none" points="213.265,2898.61 213.265,2751.61 " />
<polyline fill="none" vector-effect="none" points="139.765,2751.61 213.265,2751.61 " />
<polyline fill="none" vector-effect="none" points="139.765,2595.61 213.265,2595.61 " />
<polyline fill="none" vector-effect="none" points="213.265,2595.61 213.265,2448.61 " />
<polyline fill="none" vector-effect="none" points="3328.77,2598.61 3402.27,2598.61 " />
<polyline fill="none" vector-effect="none" points="3328.77,2748.61 3328.77,2598.61 " />
<polyline fill="none" vector-effect="none" points="3328.77,2748.61 3402.27,2748.61 " />
<polyline fill="none" vector-effect="none" points="3402.27,2748.61 3402.27,2898.61 " />
<polyline fill="none" vector-effect="none" points="3112.36,2898.61 3112.36,2825.11 " />
<polyline fill="none" vector-effect="none" points="3112.36,2825.11 2822.45,2825.11 " />
<polyline fill="none" vector-effect="none" points="2822.45,2898.61 2822.45,2825.11 " />
<polyline fill="none" vector-effect="none" points="2532.54,2898.61 2532.54,2825.11 " />
<polyline fill="none" vector-effect="none" points="2532.54,2825.11 2242.63,2825.11 " />
<polyline fill="none" vector-effect="none" points="2242.63,2898.61 2242.63,2825.11 " />
<polyline fill="none" vector-effect="none" points="1952.72,2898.61 1952.72,2825.11 " />
<polyline fill="none" vector-effect="none" points="1952.72,2825.11 1662.81,2825.11 " />
<polyline fill="none" vector-effect="none" points="1662.81,2898.61 1662.81,2825.11 " />
<polyline fill="none" vector-effect="none" points="1372.9,2898.61 1372.9,2825.11 " />
<polyline fill="none" vector-effect="none" points="1372.9,2825.11 1082.99,2825.11 " />
<polyline fill="none" vector-effect="none" points="1082.99,2898.61 1082.99,2825.11 " />
<polyline fill="none" vector-effect="none" points="793.083,2898.61 793.083,2825.11 " />
<polyline fill="none" vector-effect="none" points="503.174,2898.61 213.265,2898.61 " />
<polyline fill="none" vector-effect="none" points="3402.27,2448.61 213.265,2448.61 " />
<polyline fill="none" vector-effect="none" points="139.765,2595.61 139.765,2751.61 " />
<polyline fill="none" vector-effect="none" points="3402.27,2448.61 3402.27,2598.61 " />
<polyline fill="none" vector-effect="none" points="3402.27,2898.61 3112.36,2898.61 " />
<polyline fill="none" vector-effect="none" points="2822.45,2898.61 2532.54,2898.61 " />
<polyline fill="none" vector-effect="none" points="2242.63,2898.61 1952.72,2898.61 " />
<polyline fill="none" vector-effect="none" points="1662.81,2898.61 1372.9,2898.61 " />
<polyline fill="none" vector-effect="none" points="1082.99,2898.61 793.083,2898.61 " />
<polyline fill="none" vector-effect="none" points="5284.11,2665.13 5282.61,2890.13 " />
<polyline fill="none" vector-effect="none" points="5184.53,2890.13 5282.61,2890.13 " />
<polyline fill="none" vector-effect="none" points="5184.53,2890.13 5184.53,2816.63 " />
<polyline fill="none" vector-effect="none" points="5184.53,2816.63 4913.38,2816.63 " />
<polyline fill="none" vector-effect="none" points="4913.38,2890.13 4913.38,2816.63 " />
<polyline fill="none" vector-effect="none" points="4642.23,2890.13 4913.38,2890.13 " />
<polyline fill="none" vector-effect="none" points="4642.23,2890.13 4642.23,2816.63 " />
<polyline fill="none" vector-effect="none" points="4642.23,2816.63 4371.07,2816.63 " />
<polyline fill="none" vector-effect="none" points="4371.07,2890.13 4371.07,2816.63 " />
<polyline fill="none" vector-effect="none" points="4099.92,2890.13 4371.07,2890.13 " />
<polyline fill="none" vector-effect="none" points="4099.92,2890.13 4099.92,2816.63 " />
<polyline fill="none" vector-effect="none" points="4099.92,2816.63 3828.76,2816.63 " />
<polyline fill="none" vector-effect="none" points="3828.76,2890.13 3828.76,2816.63 " />
<polyline fill="none" vector-effect="none" points="3557.61,2890.13 3828.76,2890.13 " />
<polyline fill="none" vector-effect="none" points="3557.61,2740.13 3557.61,2890.13 " />
<polyline fill="none" vector-effect="none" points="3557.61,2740.13 3631.11,2740.13 " />
<polyline fill="none" vector-effect="none" points="3631.11,2740.13 3631.11,2590.13 " />
<polyline fill="none" vector-effect="none" points="3557.61,2590.13 3631.11,2590.13 " />
<polyline fill="none" vector-effect="none" points="7082.61,2440.13 7082.61,2590.13 " />
<polyline fill="none" vector-effect="none" points="7009.11,2590.13 7082.61,2590.13 " />
<polyline fill="none" vector-effect="none" points="7009.11,2740.13 7009.11,2590.13 " />
<polyline fill="none" vector-effect="none" points="7009.11,2740.13 7082.61,2740.13 " />
<polyline fill="none" vector-effect="none" points="7082.61,2740.13 7082.61,2890.13 " />
<polyline fill="none" vector-effect="none" points="6811.46,2890.13 7082.61,2890.13 " />
<polyline fill="none" vector-effect="none" points="6811.46,2890.13 6811.46,2816.63 " />
<polyline fill="none" vector-effect="none" points="6811.46,2816.63 6540.3,2816.63 " />
<polyline fill="none" vector-effect="none" points="6540.3,2890.13 6540.3,2816.63 " />
<polyline fill="none" vector-effect="none" points="6269.15,2890.13 6540.3,2890.13 " />
<polyline fill="none" vector-effect="none" points="6269.15,2890.13 6269.15,2816.63 " />
<polyline fill="none" vector-effect="none" points="6269.15,2816.63 5997.99,2816.63 " />
<polyline fill="none" vector-effect="none" points="5997.99,2890.13 5997.99,2816.63 " />
<polyline fill="none" vector-effect="none" points="5726.84,2890.13 5997.99,2890.13 " />
<polyline fill="none" vector-effect="none" points="5726.84,2890.13 5726.84,2816.63 " />
<polyline fill="none" vector-effect="none" points="5726.84,2816.63 5455.69,2816.63 " />
<polyline fill="none" vector-effect="none" points="5455.69,2890.13 5455.69,2816.63 " />
<polyline fill="none" vector-effect="none" points="5357.61,2890.13 5455.69,2890.13 " />
<polyline fill="none" vector-effect="none" points="5356.11,2665.13 5357.61,2890.13 " />
<polyline fill="none" vector-effect="none" points="5284.11,2665.13 5356.11,2665.13 " />
<polyline fill="none" vector-effect="none" points="3557.61,2440.13 7082.61,2440.13 " />
<polyline fill="none" vector-effect="none" points="3557.61,2440.13 3557.61,2590.13 " />
<polyline fill="none" vector-effect="none" points="5580.85,510.801 5302.28,510.801 " />
<polyline fill="none" vector-effect="none" points="5302.28,584.301 5302.28,510.801 " />
<polyline fill="none" vector-effect="none" points="5302.28,584.301 5023.71,584.301 " />
<polyline fill="none" vector-effect="none" points="5023.71,434.301 5023.71,584.301 " />
<polyline fill="none" vector-effect="none" points="5023.71,434.301 5097.21,434.301 " />
<polyline fill="none" vector-effect="none" points="5023.71,284.301 5097.21,284.301 " />
<polyline fill="none" vector-effect="none" points="5023.71,134.301 5023.71,284.301 " />
<polyline fill="none" vector-effect="none" points="6973.71,134.301 5023.71,134.301 " />
<polyline fill="none" vector-effect="none" points="6973.71,134.301 6973.71,284.301 " />
<polyline fill="none" vector-effect="none" points="6973.71,284.301 6900.21,284.301 " />
<polyline fill="none" vector-effect="none" points="6900.21,284.301 6900.21,434.301 " />
<polyline fill="none" vector-effect="none" points="6973.71,434.301 6900.21,434.301 " />
<polyline fill="none" vector-effect="none" points="6973.71,434.301 6973.71,584.301 " />
<polyline fill="none" vector-effect="none" points="6973.71,584.301 6695.14,584.301 " />
<polyline fill="none" vector-effect="none" points="6695.14,584.301 6695.14,510.801 " />
<polyline fill="none" vector-effect="none" points="6695.14,510.801 6416.57,510.801 " />
<polyline fill="none" vector-effect="none" points="6416.57,584.301 6416.57,510.801 " />
<polyline fill="none" vector-effect="none" points="6416.57,584.301 6138,584.301 " />
<polyline fill="none" vector-effect="none" points="6138,584.301 6138,510.801 " />
<polyline fill="none" vector-effect="none" points="6138,510.801 5859.42,510.801 " />
<polyline fill="none" vector-effect="none" points="5859.42,584.301 5859.42,510.801 " />
<polyline fill="none" vector-effect="none" points="5859.42,584.301 5580.85,584.301 " />
<polyline fill="none" vector-effect="none" points="5580.85,584.301 5580.85,510.801 " />
<polyline fill="none" vector-effect="none" points="5097.21,434.301 5097.21,284.301 " />
<polyline fill="none" vector-effect="none" points="5578.17,1019.52 5299.6,1019.52 " />
<polyline fill="none" vector-effect="none" points="5299.6,1093.02 5299.6,1019.52 " />
<polyline fill="none" vector-effect="none" points="5021.03,1093.02 5299.6,1093.02 " />
<polyline fill="none" vector-effect="none" points="5021.03,943.022 5021.03,1093.02 " />
<polyline fill="none" vector-effect="none" points="5021.03,943.022 5094.53,943.022 " />
<polyline fill="none" vector-effect="none" points="5094.53,943.022 5094.53,793.022 " />
<polyline fill="none" vector-effect="none" points="5021.03,793.022 5094.53,793.022 " />
<polyline fill="none" vector-effect="none" points="5021.03,643.022 5021.03,793.022 " />
<polyline fill="none" vector-effect="none" points="5021.03,643.022 6971.03,643.022 " />
<polyline fill="none" vector-effect="none" points="6971.03,643.022 6971.03,793.022 " />
<polyline fill="none" vector-effect="none" points="6971.03,793.022 6897.53,793.022 " />
<polyline fill="none" vector-effect="none" points="6897.53,793.022 6897.53,943.022 " />
<polyline fill="none" vector-effect="none" points="6971.03,943.022 6897.53,943.022 " />
<polyline fill="none" vector-effect="none" points="6971.03,943.022 6971.03,1093.02 " />
<polyline fill="none" vector-effect="none" points="6692.46,1093.02 6692.46,1019.52 " />
<polyline fill="none" vector-effect="none" points="6692.46,1019.52 6413.88,1019.52 " />
<polyline fill="none" vector-effect="none" points="6413.88,1093.02 6413.88,1019.52 " />
<polyline fill="none" vector-effect="none" points="6135.31,1093.02 6135.31,1019.52 " />
<polyline fill="none" vector-effect="none" points="6135.31,1019.52 5856.74,1019.52 " />
<polyline fill="none" vector-effect="none" points="5856.74,1093.02 5856.74,1019.52 " />
<polyline fill="none" vector-effect="none" points="5578.17,1093.02 5578.17,1019.52 " />
<polyline fill="none" vector-effect="none" points="5960.03,793.022 6032.03,793.022 " />
<polyline fill="none" vector-effect="none" points="5960.03,943.022 5960.03,793.022 " />
<polyline fill="none" vector-effect="none" points="5960.03,943.022 6032.03,943.022 " />
<polyline fill="none" vector-effect="none" points="6032.03,943.022 6032.03,793.022 " />
<polyline fill="none" vector-effect="none" points="6692.46,1093.02 6971.03,1093.02 " />
<polyline fill="none" vector-effect="none" points="6135.31,1093.02 6413.88,1093.02 " />
<polyline fill="none" vector-effect="none" points="5578.17,1093.02 5856.74,1093.02 " />
</g>

<g fill="none" stroke="#000000" stroke-opacity="1" stroke-width="1" stroke-linecap="square" stroke-linejoin="bevel" transform="matrix(1,0,0,1,0,0)"
font-family="Arial" font-size="12" font-weight="400" font-style="normal" 
>
</g>
</g>
</svg>
