<?xml version="1.0" encoding="UTF-8" standalone="no"?>
<svg width="609.6mm" height="457.2mm"
 viewBox="0 0 7200 5400"
 xmlns="http://www.w3.org/2000/svg" xmlns:xlink="http://www.w3.org/1999/xlink"  version="1.2" baseProfile="tiny">
<defs>
</defs>
<g fill="none" stroke="black" stroke-width="1" fill-rule="evenodd" stroke-linecap="square" stroke-linejoin="bevel" >

<g fill="#ffffff" fill-opacity="1" stroke="none" transform="matrix(1,0,0,1,0,0)"
font-family="Arial" font-size="12" font-weight="400" font-style="normal" 
>
<rect x="0" y="0" width="7200" height="5400"/>
</g>

<g fill="none" stroke="#000000" stroke-opacity="1" stroke-width="1" stroke-linecap="square" stroke-linejoin="bevel" transform="matrix(1,0,0,1,0,0)"
font-family="Arial" font-size="12" font-weight="400" font-style="normal" 
>
</g>

<g fill="#000000" fill-opacity="1" stroke="#000000" stroke-opacity="1" stroke-width="1" stroke-linecap="butt" stroke-linejoin="miter" stroke-miterlimit="2" transform="matrix(1,0,0,1,0,0)"
font-family="Arial" font-size="12" font-weight="400" font-style="normal" 
>
</g>

<g fill="#000000" fill-opacity="1" stroke="#000000" stroke-opacity="1" stroke-width="5" stroke-linecap="round" stroke-linejoin="bevel" transform="matrix(1,0,0,1,0,0)"
font-family="Arial" font-size="12" font-weight="400" font-style="normal" 
>
<polyline fill="none" vector-effect="none" points="5235.67,4414.27 5235.67,4481.77 " />
<polyline fill="none" vector-effect="none" points="4971.53,4414.27 4971.53,4481.77 " />
<polyline fill="none" vector-effect="none" points="4971.53,4414.27 4719.39,4414.27 " />
<polyline fill="none" vector-effect="none" points="4719.39,4414.27 4719.39,4481.77 " />
<polyline fill="none" vector-effect="none" points="4455.26,4414.27 4455.26,4481.77 " />
<polyline fill="none" vector-effect="none" points="4455.26,4414.27 4203.12,4414.27 " />
<polyline fill="none" vector-effect="none" points="4203.12,4414.27 4203.12,4481.77 " />
<polyline fill="none" vector-effect="none" points="3938.99,4414.27 3938.99,4481.77 " />
<polyline fill="none" vector-effect="none" points="3938.99,4414.27 3686.85,4414.27 " />
<polyline fill="none" vector-effect="none" points="3686.85,4414.27 3686.85,4481.77 " />
<polyline fill="none" vector-effect="none" points="3422.71,4414.27 3422.71,4481.77 " />
<polyline fill="none" vector-effect="none" points="3422.71,4414.27 3170.58,4414.27 " />
<polyline fill="none" vector-effect="none" points="3170.58,4414.27 3170.58,4481.77 " />
<polyline fill="none" vector-effect="none" points="2906.44,4414.27 2906.44,4481.77 " />
<polyline fill="none" vector-effect="none" points="2906.44,4414.27 2651.3,4414.27 " />
<polyline fill="none" vector-effect="none" points="2585.3,4219.95 2651.3,4219.95 " />
<polyline fill="none" vector-effect="none" points="2585.3,4414.27 2370.2,4414.27 " />
<polyline fill="none" vector-effect="none" points="2146.1,4414.27 2146.1,4481.77 " />
<polyline fill="none" vector-effect="none" points="2146.1,4414.27 1934,4414.27 " />
<polyline fill="none" vector-effect="none" points="1934,4414.27 1934,4481.77 " />
<polyline fill="none" vector-effect="none" points="1709.9,4414.27 1709.9,4481.77 " />
<polyline fill="none" vector-effect="none" points="1428.8,4414.27 1213.7,4414.27 " />
<polyline fill="none" vector-effect="none" points="1213.7,4414.27 1213.7,4481.77 " />
<polyline fill="none" vector-effect="none" points="989.604,4414.27 777.504,4414.27 " />
<polyline fill="none" vector-effect="none" points="777.504,4414.27 777.504,4481.77 " />
<polyline fill="none" vector-effect="none" points="553.404,4414.27 553.404,4481.77 " />
<polyline fill="none" vector-effect="none" points="553.404,4414.27 338.304,4414.27 " />
<polyline fill="none" vector-effect="none" points="270.804,4219.95 270.804,3949.13 " />
<polyline fill="none" vector-effect="none" points="270.804,3690.31 270.804,3419.49 " />
<polyline fill="none" vector-effect="none" points="270.804,3160.68 270.804,2889.86 " />
<polyline fill="none" vector-effect="none" points="270.804,2631.04 270.804,2360.22 " />
<polyline fill="none" vector-effect="none" points="270.804,2101.4 270.804,1830.58 " />
<polyline fill="none" vector-effect="none" points="338.304,1830.58 338.304,1636.27 " />
<polyline fill="none" vector-effect="none" points="338.304,1636.27 553.404,1636.27 " />
<polyline fill="none" vector-effect="none" points="553.404,1636.27 553.404,1568.77 " />
<polyline fill="none" vector-effect="none" points="777.504,1568.77 553.404,1568.77 " />
<polyline fill="none" vector-effect="none" points="777.504,1636.27 777.504,1568.77 " />
<polyline fill="none" vector-effect="none" points="777.504,1636.27 989.604,1636.27 " />
<polyline fill="none" vector-effect="none" points="989.604,1636.27 989.604,1568.77 " />
<polyline fill="none" vector-effect="none" points="1213.7,1568.77 989.604,1568.77 " />
<polyline fill="none" vector-effect="none" points="1213.7,1636.27 1428.8,1636.27 " />
<polyline fill="none" vector-effect="none" points="1494.8,1636.27 1709.9,1636.27 " />
<polyline fill="none" vector-effect="none" points="1709.9,1636.27 1709.9,1568.77 " />
<polyline fill="none" vector-effect="none" points="1934,1568.77 1709.9,1568.77 " />
<polyline fill="none" vector-effect="none" points="1934,1636.27 1934,1568.77 " />
<polyline fill="none" vector-effect="none" points="1934,1636.27 2146.1,1636.27 " />
<polyline fill="none" vector-effect="none" points="2146.1,1636.27 2146.1,1568.77 " />
<polyline fill="none" vector-effect="none" points="2370.2,1568.77 2146.1,1568.77 " />
<polyline fill="none" vector-effect="none" points="2370.2,1636.27 2370.2,1568.77 " />
<polyline fill="none" vector-effect="none" points="2370.2,1636.27 2585.3,1636.27 " />
<polyline fill="none" vector-effect="none" points="2906.44,1636.27 2906.44,1568.77 " />
<polyline fill="none" vector-effect="none" points="3170.58,1568.77 2906.44,1568.77 " />
<polyline fill="none" vector-effect="none" points="3170.58,1636.27 3170.58,1568.77 " />
<polyline fill="none" vector-effect="none" points="3170.58,1636.27 3422.71,1636.27 " />
<polyline fill="none" vector-effect="none" points="3422.71,1636.27 3422.71,1568.77 " />
<polyline fill="none" vector-effect="none" points="3686.85,1568.77 3422.71,1568.77 " />
<polyline fill="none" vector-effect="none" points="3686.85,1636.27 3938.99,1636.27 " />
<polyline fill="none" vector-effect="none" points="3938.99,1636.27 3938.99,1568.77 " />
<polyline fill="none" vector-effect="none" points="4203.12,1568.77 3938.99,1568.77 " />
<polyline fill="none" vector-effect="none" points="4455.26,1636.27 4455.26,1568.77 " />
<polyline fill="none" vector-effect="none" points="4719.39,1568.77 4455.26,1568.77 " />
<polyline fill="none" vector-effect="none" points="4719.39,1636.27 4719.39,1568.77 " />
<polyline fill="none" vector-effect="none" points="4719.39,1636.27 4971.53,1636.27 " />
<polyline fill="none" vector-effect="none" points="4971.53,1636.27 4971.53,1568.77 " />
<polyline fill="none" vector-effect="none" points="5235.67,1568.77 4971.53,1568.77 " />
<polyline fill="none" vector-effect="none" points="5235.67,1636.27 5235.67,1568.77 " />
<polyline fill="none" vector-effect="none" points="5235.67,1636.27 5490.8,1636.27 " />
<polyline fill="none" vector-effect="none" points="5490.8,1636.27 5490.8,1830.58 " />
<polyline fill="none" vector-effect="none" points="5490.8,1830.58 5558.3,1830.58 " />
<polyline fill="none" vector-effect="none" points="5558.3,2101.4 5558.3,1830.58 " />
<polyline fill="none" vector-effect="none" points="5490.8,2101.4 5558.3,2101.4 " />
<polyline fill="none" vector-effect="none" points="5490.8,2101.4 5490.8,2360.22 " />
<polyline fill="none" vector-effect="none" points="5490.8,2360.22 5558.3,2360.22 " />
<polyline fill="none" vector-effect="none" points="5558.3,2631.04 5558.3,2360.22 " />
<polyline fill="none" vector-effect="none" points="5558.3,3160.68 5558.3,2889.86 " />
<polyline fill="none" vector-effect="none" points="5490.8,3690.31 5558.3,3690.31 " />
<polyline fill="none" vector-effect="none" points="5490.8,3690.31 5490.8,3949.13 " />
<polyline fill="none" vector-effect="none" points="5490.8,3949.13 5558.3,3949.13 " />
<polyline fill="none" vector-effect="none" points="5558.3,4219.95 5558.3,3949.13 " />
<polyline fill="none" vector-effect="none" points="5490.8,4219.95 5558.3,4219.95 " />
<polyline fill="none" vector-effect="none" points="5490.8,4414.27 5235.67,4414.27 " />
<polyline fill="none" vector-effect="none" points="2585.3,3690.31 2585.3,3949.13 " />
<polyline fill="none" vector-effect="none" points="2585.3,3419.49 2651.3,3419.49 " />
<polyline fill="none" vector-effect="none" points="2651.3,3160.68 2651.3,3419.49 " />
<polyline fill="none" vector-effect="none" points="2585.3,3160.68 2651.3,3160.68 " />
<polyline fill="none" vector-effect="none" points="2585.3,3160.68 2585.3,3419.49 " />
<polyline fill="none" vector-effect="none" points="2585.3,2889.86 2651.3,2889.86 " />
<polyline fill="none" vector-effect="none" points="2651.3,2631.04 2651.3,2889.86 " />
<polyline fill="none" vector-effect="none" points="2585.3,2631.04 2651.3,2631.04 " />
<polyline fill="none" vector-effect="none" points="2585.3,2631.04 2585.3,2889.86 " />
<polyline fill="none" vector-effect="none" points="2585.3,2360.22 2651.3,2360.22 " />
<polyline fill="none" vector-effect="none" points="2585.3,2101.4 2651.3,2101.4 " />
<polyline fill="none" vector-effect="none" points="2585.3,2101.4 2585.3,2360.22 " />
<polyline fill="none" vector-effect="none" points="989.604,4414.27 989.604,4481.77 " />
<polyline fill="none" vector-effect="none" points="2370.2,4414.27 2370.2,4481.77 " />
<polyline fill="none" vector-effect="none" points="1494.8,4219.95 1494.8,4414.27 " />
<polyline fill="none" vector-effect="none" points="1428.8,4219.95 1428.8,4414.27 " />
<polyline fill="none" vector-effect="none" points="2651.3,4219.95 2651.3,4414.27 " />
<polyline fill="none" vector-effect="none" points="2585.3,4219.95 2585.3,4414.27 " />
<polyline fill="none" vector-effect="none" points="2370.2,4481.77 2146.1,4481.77 " />
<polyline fill="none" vector-effect="none" points="1934,4481.77 1709.9,4481.77 " />
<polyline fill="none" vector-effect="none" points="777.504,4481.77 553.404,4481.77 " />
<polyline fill="none" vector-effect="none" points="1213.7,4481.77 989.604,4481.77 " />
<polyline fill="none" vector-effect="none" points="3170.58,4481.77 2906.44,4481.77 " />
<polyline fill="none" vector-effect="none" points="3686.85,4481.77 3422.71,4481.77 " />
<polyline fill="none" vector-effect="none" points="4203.12,4481.77 3938.99,4481.77 " />
<polyline fill="none" vector-effect="none" points="3686.85,1636.27 3686.85,1568.77 " />
<polyline fill="none" vector-effect="none" points="5235.67,4481.77 4971.53,4481.77 " />
<polyline fill="none" vector-effect="none" points="2651.3,1636.27 2906.44,1636.27 " />
<polyline fill="none" vector-effect="none" points="1428.8,2631.04 1428.8,2889.86 " />
<polyline fill="none" vector-effect="none" points="1213.7,1636.27 1213.7,1568.77 " />
<polyline fill="none" vector-effect="none" points="1494.8,3160.68 1494.8,3419.49 " />
<polyline fill="none" vector-effect="none" points="1428.8,3160.68 1428.8,3419.49 " />
<polyline fill="none" vector-effect="none" points="1428.8,3160.68 1494.8,3160.68 " />
<polyline fill="none" vector-effect="none" points="2651.3,1636.27 2651.3,1830.58 " />
<polyline fill="none" vector-effect="none" points="338.304,3949.13 270.804,3949.13 " />
<polyline fill="none" vector-effect="none" points="4203.12,1636.27 4455.26,1636.27 " />
<polyline fill="none" vector-effect="none" points="4203.12,1636.27 4203.12,1568.77 " />
<polyline fill="none" vector-effect="none" points="2585.3,3949.13 2651.3,3949.13 " />
<polyline fill="none" vector-effect="none" points="338.304,2631.04 270.804,2631.04 " />
<polyline fill="none" vector-effect="none" points="338.304,2889.86 338.304,2631.04 " />
<polyline fill="none" vector-effect="none" points="2585.3,3690.31 2651.3,3690.31 " />
<polyline fill="none" vector-effect="none" points="2651.3,2101.4 2651.3,2360.22 " />
<polyline fill="none" vector-effect="none" points="338.304,2360.22 338.304,2101.4 " />
<polyline fill="none" vector-effect="none" points="338.304,2360.22 270.804,2360.22 " />
<polyline fill="none" vector-effect="none" points="1494.8,1636.27 1494.8,1830.58 " />
<polyline fill="none" vector-effect="none" points="1428.8,1830.58 1494.8,1830.58 " />
<polyline fill="none" vector-effect="none" points="1428.8,1636.27 1428.8,1830.58 " />
<polyline fill="none" vector-effect="none" points="1494.8,3690.31 1494.8,3949.13 " />
<polyline fill="none" vector-effect="none" points="1428.8,3949.13 1494.8,3949.13 " />
<polyline fill="none" vector-effect="none" points="1428.8,3690.31 1428.8,3949.13 " />
<polyline fill="none" vector-effect="none" points="1428.8,3690.31 1494.8,3690.31 " />
<polyline fill="none" vector-effect="none" points="1428.8,4219.95 1494.8,4219.95 " />
<polyline fill="none" vector-effect="none" points="1494.8,2101.4 1494.8,2360.22 " />
<polyline fill="none" vector-effect="none" points="1428.8,2360.22 1494.8,2360.22 " />
<polyline fill="none" vector-effect="none" points="5490.8,2889.86 5558.3,2889.86 " />
<polyline fill="none" vector-effect="none" points="5490.8,2631.04 5490.8,2889.86 " />
<polyline fill="none" vector-effect="none" points="5490.8,2631.04 5558.3,2631.04 " />
<polyline fill="none" vector-effect="none" points="5490.8,3419.49 5558.3,3419.49 " />
<polyline fill="none" vector-effect="none" points="5490.8,3160.68 5490.8,3419.49 " />
<polyline fill="none" vector-effect="none" points="5490.8,3160.68 5558.3,3160.68 " />
<polyline fill="none" vector-effect="none" points="338.304,1830.58 270.804,1830.58 " />
<polyline fill="none" vector-effect="none" points="338.304,4219.95 270.804,4219.95 " />
<polyline fill="none" vector-effect="none" points="1709.9,4414.27 1494.8,4414.27 " />
<polyline fill="none" vector-effect="none" points="338.304,3690.31 270.804,3690.31 " />
<polyline fill="none" vector-effect="none" points="338.304,3949.13 338.304,3690.31 " />
<polyline fill="none" vector-effect="none" points="338.304,2101.4 270.804,2101.4 " />
<polyline fill="none" vector-effect="none" points="338.304,3160.68 270.804,3160.68 " />
<polyline fill="none" vector-effect="none" points="338.304,3419.49 338.304,3160.68 " />
<polyline fill="none" vector-effect="none" points="338.304,3419.49 270.804,3419.49 " />
<polyline fill="none" vector-effect="none" points="2651.3,3690.31 2651.3,3949.13 " />
<polyline fill="none" vector-effect="none" points="1428.8,2101.4 1428.8,2360.22 " />
<polyline fill="none" vector-effect="none" points="338.304,2889.86 270.804,2889.86 " />
<polyline fill="none" vector-effect="none" points="338.304,4414.27 338.304,4219.95 " />
<polyline fill="none" vector-effect="none" points="1494.8,2631.04 1494.8,2889.86 " />
<polyline fill="none" vector-effect="none" points="1428.8,2889.86 1494.8,2889.86 " />
<polyline fill="none" vector-effect="none" points="2585.3,1830.58 2651.3,1830.58 " />
<polyline fill="none" vector-effect="none" points="5490.8,4219.95 5490.8,4414.27 " />
<polyline fill="none" vector-effect="none" points="1428.8,2631.04 1494.8,2631.04 " />
<polyline fill="none" vector-effect="none" points="1428.8,3419.49 1494.8,3419.49 " />
<polyline fill="none" vector-effect="none" points="1428.8,2101.4 1494.8,2101.4 " />
<polyline fill="none" vector-effect="none" points="4719.39,4481.77 4455.26,4481.77 " />
<polyline fill="none" vector-effect="none" points="5558.3,3690.31 5558.3,3419.49 " />
<polyline fill="none" vector-effect="none" points="2585.3,1636.27 2585.3,1830.58 " />
<polyline fill="none" vector-effect="none" points="4836.5,5156.77 4836.5,5089.27 " />
<polyline fill="none" vector-effect="none" points="4618.4,5089.27 4836.5,5089.27 " />
<polyline fill="none" vector-effect="none" points="4618.4,5156.77 4618.4,5089.27 " />
<polyline fill="none" vector-effect="none" points="4400.3,5156.77 4618.4,5156.77 " />
<polyline fill="none" vector-effect="none" points="4400.3,5156.77 4400.3,5039.77 " />
<polyline fill="none" vector-effect="none" points="4400.3,5039.77 4334.3,5039.77 " />
<polyline fill="none" vector-effect="none" points="4334.3,5156.77 4334.3,5039.77 " />
<polyline fill="none" vector-effect="none" points="4116.2,5156.77 4334.3,5156.77 " />
<polyline fill="none" vector-effect="none" points="4116.2,5156.77 4116.2,5089.27 " />
<polyline fill="none" vector-effect="none" points="3898.1,5089.27 4116.2,5089.27 " />
<polyline fill="none" vector-effect="none" points="3898.1,5156.77 3898.1,5089.27 " />
<polyline fill="none" vector-effect="none" points="3680,5156.77 3898.1,5156.77 " />
<polyline fill="none" vector-effect="none" points="3680,5156.77 3680,5089.27 " />
<polyline fill="none" vector-effect="none" points="3461.9,5089.27 3680,5089.27 " />
<polyline fill="none" vector-effect="none" points="3461.9,5156.77 3461.9,5089.27 " />
<polyline fill="none" vector-effect="none" points="3243.8,5156.77 3461.9,5156.77 " />
<polyline fill="none" vector-effect="none" points="3243.8,5156.77 3243.8,5039.77 " />
<polyline fill="none" vector-effect="none" points="3243.8,5039.77 3177.8,5039.77 " />
<polyline fill="none" vector-effect="none" points="3177.8,5156.77 3177.8,5039.77 " />
<polyline fill="none" vector-effect="none" points="2919.67,5156.77 3177.8,5156.77 " />
<polyline fill="none" vector-effect="none" points="2919.67,5156.77 2919.67,5089.27 " />
<polyline fill="none" vector-effect="none" points="2661.53,5089.27 2919.67,5089.27 " />
<polyline fill="none" vector-effect="none" points="2661.53,5156.77 2661.53,5089.27 " />
<polyline fill="none" vector-effect="none" points="2403.39,5156.77 2403.39,5089.27 " />
<polyline fill="none" vector-effect="none" points="2145.26,5089.27 2403.39,5089.27 " />
<polyline fill="none" vector-effect="none" points="1887.12,5156.77 1887.12,5089.27 " />
<polyline fill="none" vector-effect="none" points="1370.85,5156.77 1370.85,5089.27 " />
<polyline fill="none" vector-effect="none" points="1112.71,5089.27 1370.85,5089.27 " />
<polyline fill="none" vector-effect="none" points="338.304,5156.77 338.304,5039.77 " />
<polyline fill="none" vector-effect="none" points="338.304,5039.77 270.804,5039.77 " />
<polyline fill="none" vector-effect="none" points="270.804,4913.77 270.804,5039.77 " />
<polyline fill="none" vector-effect="none" points="338.304,4913.77 270.804,4913.77 " />
<polyline fill="none" vector-effect="none" points="338.304,4913.77 338.304,4799.77 " />
<polyline fill="none" vector-effect="none" points="338.304,4799.77 270.804,4799.77 " />
<polyline fill="none" vector-effect="none" points="270.804,4673.77 270.804,4799.77 " />
<polyline fill="none" vector-effect="none" points="338.304,4673.77 270.804,4673.77 " />
<polyline fill="none" vector-effect="none" points="338.304,4673.77 338.304,4556.77 " />
<polyline fill="none" vector-effect="none" points="338.304,4556.77 3177.8,4556.77 " />
<polyline fill="none" vector-effect="none" points="3177.8,4673.77 3177.8,4556.77 " />
<polyline fill="none" vector-effect="none" points="3243.8,4673.77 3177.8,4673.77 " />
<polyline fill="none" vector-effect="none" points="3243.8,4673.77 3243.8,4556.77 " />
<polyline fill="none" vector-effect="none" points="3243.8,4556.77 4334.3,4556.77 " />
<polyline fill="none" vector-effect="none" points="4334.3,4673.77 4334.3,4556.77 " />
<polyline fill="none" vector-effect="none" points="4400.3,4673.77 4334.3,4673.77 " />
<polyline fill="none" vector-effect="none" points="4400.3,4673.77 4400.3,4556.77 " />
<polyline fill="none" vector-effect="none" points="4400.3,4556.77 5490.8,4556.77 " />
<polyline fill="none" vector-effect="none" points="5490.8,4556.77 5490.8,4673.77 " />
<polyline fill="none" vector-effect="none" points="5490.8,4673.77 5558.3,4673.77 " />
<polyline fill="none" vector-effect="none" points="5558.3,4673.77 5558.3,4799.77 " />
<polyline fill="none" vector-effect="none" points="5490.8,4799.77 5558.3,4799.77 " />
<polyline fill="none" vector-effect="none" points="5490.8,4799.77 5490.8,4913.77 " />
<polyline fill="none" vector-effect="none" points="5490.8,4913.77 5558.3,4913.77 " />
<polyline fill="none" vector-effect="none" points="5558.3,4913.77 5558.3,5039.77 " />
<polyline fill="none" vector-effect="none" points="5490.8,5039.77 5558.3,5039.77 " />
<polyline fill="none" vector-effect="none" points="5490.8,5039.77 5490.8,5156.77 " />
<polyline fill="none" vector-effect="none" points="5272.7,5156.77 5490.8,5156.77 " />
<polyline fill="none" vector-effect="none" points="5272.7,5156.77 5272.7,5089.27 " />
<polyline fill="none" vector-effect="none" points="5054.6,5089.27 5272.7,5089.27 " />
<polyline fill="none" vector-effect="none" points="5054.6,5156.77 5054.6,5089.27 " />
<polyline fill="none" vector-effect="none" points="4836.5,5156.77 5054.6,5156.77 " />
<polyline fill="none" vector-effect="none" points="3243.8,4799.77 3177.8,4799.77 " />
<polyline fill="none" vector-effect="none" points="3177.8,4913.77 3177.8,4799.77 " />
<polyline fill="none" vector-effect="none" points="3243.8,4913.77 3177.8,4913.77 " />
<polyline fill="none" vector-effect="none" points="3243.8,4913.77 3243.8,4799.77 " />
<polyline fill="none" vector-effect="none" points="4400.3,4799.77 4334.3,4799.77 " />
<polyline fill="none" vector-effect="none" points="4334.3,4913.77 4334.3,4799.77 " />
<polyline fill="none" vector-effect="none" points="4400.3,4913.77 4334.3,4913.77 " />
<polyline fill="none" vector-effect="none" points="4400.3,4913.77 4400.3,4799.77 " />
<polyline fill="none" vector-effect="none" points="854.576,5156.77 854.576,5089.27 " />
<polyline fill="none" vector-effect="none" points="596.44,5156.77 596.44,5089.27 " />
<polyline fill="none" vector-effect="none" points="2145.26,5156.77 2145.26,5089.27 " />
<polyline fill="none" vector-effect="none" points="1628.99,5089.27 1887.12,5089.27 " />
<polyline fill="none" vector-effect="none" points="338.304,5156.77 596.44,5156.77 " />
<polyline fill="none" vector-effect="none" points="1628.99,5156.77 1628.99,5089.27 " />
<polyline fill="none" vector-effect="none" points="1112.71,5156.77 1112.71,5089.27 " />
<polyline fill="none" vector-effect="none" points="596.44,5089.27 854.576,5089.27 " />
<polyline fill="none" vector-effect="none" points="854.576,5156.77 1112.71,5156.77 " />
<polyline fill="none" vector-effect="none" points="1370.85,5156.77 1628.99,5156.77 " />
<polyline fill="none" vector-effect="none" points="2403.39,5156.77 2661.53,5156.77 " />
<polyline fill="none" vector-effect="none" points="1887.12,5156.77 2145.26,5156.77 " />
<polyline fill="none" vector-effect="none" points="4618.4,1493.77 4618.4,1426.27 " />
<polyline fill="none" vector-effect="none" points="4400.3,1493.77 4618.4,1493.77 " />
<polyline fill="none" vector-effect="none" points="3680,1426.27 3461.9,1426.27 " />
<polyline fill="none" vector-effect="none" points="3243.8,1493.77 3461.9,1493.77 " />
<polyline fill="none" vector-effect="none" points="2919.67,1493.77 3177.8,1493.77 " />
<polyline fill="none" vector-effect="none" points="2919.67,1493.77 2919.67,1426.27 " />
<polyline fill="none" vector-effect="none" points="2919.67,1426.27 2661.53,1426.27 " />
<polyline fill="none" vector-effect="none" points="2661.53,1493.77 2661.53,1426.27 " />
<polyline fill="none" vector-effect="none" points="2403.39,1493.77 2403.39,1426.27 " />
<polyline fill="none" vector-effect="none" points="2145.26,1493.77 2145.26,1426.27 " />
<polyline fill="none" vector-effect="none" points="1887.12,1493.77 1887.12,1426.27 " />
<polyline fill="none" vector-effect="none" points="1887.12,1426.27 1628.99,1426.27 " />
<polyline fill="none" vector-effect="none" points="1628.99,1493.77 1628.99,1426.27 " />
<polyline fill="none" vector-effect="none" points="1370.85,1493.77 1370.85,1426.27 " />
<polyline fill="none" vector-effect="none" points="1370.85,1426.27 1112.71,1426.27 " />
<polyline fill="none" vector-effect="none" points="1112.71,1493.77 1112.71,1426.27 " />
<polyline fill="none" vector-effect="none" points="854.576,1426.27 596.44,1426.27 " />
<polyline fill="none" vector-effect="none" points="270.804,1250.77 270.804,1376.77 " />
<polyline fill="none" vector-effect="none" points="270.804,1010.77 270.804,1136.77 " />
<polyline fill="none" vector-effect="none" points="3243.8,1010.77 3243.8,893.767 " />
<polyline fill="none" vector-effect="none" points="4400.3,893.767 5490.8,893.767 " />
<polyline fill="none" vector-effect="none" points="5558.3,1010.77 5558.3,1136.77 " />
<polyline fill="none" vector-effect="none" points="5558.3,1250.77 5558.3,1376.77 " />
<polyline fill="none" vector-effect="none" points="5272.7,1493.77 5272.7,1426.27 " />
<polyline fill="none" vector-effect="none" points="5272.7,1426.27 5054.6,1426.27 " />
<polyline fill="none" vector-effect="none" points="4836.5,1493.77 4836.5,1426.27 " />
<polyline fill="none" vector-effect="none" points="4334.3,1136.77 4400.3,1136.77 " />
<polyline fill="none" vector-effect="none" points="3177.8,1250.77 3243.8,1250.77 " />
<polyline fill="none" vector-effect="none" points="3243.8,1250.77 3243.8,1136.77 " />
<polyline fill="none" vector-effect="none" points="3177.8,1136.77 3243.8,1136.77 " />
<polyline fill="none" vector-effect="none" points="3177.8,1250.77 3177.8,1136.77 " />
<polyline fill="none" vector-effect="none" points="5272.7,1493.77 5490.8,1493.77 " />
<polyline fill="none" vector-effect="none" points="4836.5,1493.77 5054.6,1493.77 " />
<polyline fill="none" vector-effect="none" points="3461.9,1493.77 3461.9,1426.27 " />
<polyline fill="none" vector-effect="none" points="3680,1493.77 3680,1426.27 " />
<polyline fill="none" vector-effect="none" points="4116.2,1426.27 3898.1,1426.27 " />
<polyline fill="none" vector-effect="none" points="4116.2,1493.77 4116.2,1426.27 " />
<polyline fill="none" vector-effect="none" points="338.304,1493.77 338.304,1376.77 " />
<polyline fill="none" vector-effect="none" points="270.804,1376.77 338.304,1376.77 " />
<polyline fill="none" vector-effect="none" points="338.304,1010.77 338.304,893.767 " />
<polyline fill="none" vector-effect="none" points="3243.8,893.767 4334.3,893.767 " />
<polyline fill="none" vector-effect="none" points="338.304,1250.77 338.304,1136.77 " />
<polyline fill="none" vector-effect="none" points="270.804,1136.77 338.304,1136.77 " />
<polyline fill="none" vector-effect="none" points="5558.3,1376.77 5490.8,1376.77 " />
<polyline fill="none" vector-effect="none" points="5054.6,1493.77 5054.6,1426.27 " />
<polyline fill="none" vector-effect="none" points="338.304,1493.77 596.44,1493.77 " />
<polyline fill="none" vector-effect="none" points="338.304,893.767 3177.8,893.767 " />
<polyline fill="none" vector-effect="none" points="596.44,1493.77 596.44,1426.27 " />
<polyline fill="none" vector-effect="none" points="854.576,1493.77 854.576,1426.27 " />
<polyline fill="none" vector-effect="none" points="4116.2,1493.77 4334.3,1493.77 " />
<polyline fill="none" vector-effect="none" points="3680,1493.77 3898.1,1493.77 " />
<polyline fill="none" vector-effect="none" points="4400.3,1493.77 4400.3,1376.77 " />
<polyline fill="none" vector-effect="none" points="2403.39,1493.77 2661.53,1493.77 " />
<polyline fill="none" vector-effect="none" points="1887.12,1493.77 2145.26,1493.77 " />
<polyline fill="none" vector-effect="none" points="1370.85,1493.77 1628.99,1493.77 " />
<polyline fill="none" vector-effect="none" points="2403.39,1426.27 2145.26,1426.27 " />
<polyline fill="none" vector-effect="none" points="4334.3,1250.77 4334.3,1136.77 " />
<polyline fill="none" vector-effect="none" points="4334.3,1250.77 4400.3,1250.77 " />
<polyline fill="none" vector-effect="none" points="4400.3,1250.77 4400.3,1136.77 " />
<polyline fill="none" vector-effect="none" points="3177.8,1493.77 3177.8,1376.77 " />
<polyline fill="none" vector-effect="none" points="3243.8,1493.77 3243.8,1376.77 " />
<polyline fill="none" vector-effect="none" points="3177.8,1376.77 3243.8,1376.77 " />
<polyline fill="none" vector-effect="none" points="3177.8,1010.77 3177.8,893.767 " />
<polyline fill="none" vector-effect="none" points="3177.8,1010.77 3243.8,1010.77 " />
<polyline fill="none" vector-effect="none" points="3898.1,1493.77 3898.1,1426.27 " />
<polyline fill="none" vector-effect="none" points="270.804,1010.77 338.304,1010.77 " />
<polyline fill="none" vector-effect="none" points="270.804,1250.77 338.304,1250.77 " />
<polyline fill="none" vector-effect="none" points="4836.5,1426.27 4618.4,1426.27 " />
<polyline fill="none" vector-effect="none" points="4334.3,1493.77 4334.3,1376.77 " />
<polyline fill="none" vector-effect="none" points="5490.8,1376.77 5490.8,1493.77 " />
<polyline fill="none" vector-effect="none" points="5490.8,893.767 5490.8,1010.77 " />
<polyline fill="none" vector-effect="none" points="5558.3,1010.77 5490.8,1010.77 " />
<polyline fill="none" vector-effect="none" points="5558.3,1136.77 5490.8,1136.77 " />
<polyline fill="none" vector-effect="none" points="5558.3,1250.77 5490.8,1250.77 " />
<polyline fill="none" vector-effect="none" points="5490.8,1136.77 5490.8,1250.77 " />
<polyline fill="none" vector-effect="none" points="4334.3,1376.77 4400.3,1376.77 " />
<polyline fill="none" vector-effect="none" points="4334.3,1010.77 4334.3,893.767 " />
<polyline fill="none" vector-effect="none" points="4334.3,1010.77 4400.3,1010.77 " />
<polyline fill="none" vector-effect="none" points="854.576,1493.77 1112.71,1493.77 " />
<polyline fill="none" vector-effect="none" points="4400.3,1010.77 4400.3,893.767 " />
<polyline fill="none" vector-effect="none" points="2124.53,818.767 2124.53,751.267 " />
<polyline fill="none" vector-effect="none" points="1594.89,818.767 1330.08,818.767 " />
<polyline fill="none" vector-effect="none" points="1065.26,818.767 1065.26,751.267 " />
<polyline fill="none" vector-effect="none" points="1065.26,818.767 800.44,818.767 " />
<polyline fill="none" vector-effect="none" points="535.622,818.767 270.804,818.767 " />
<polyline fill="none" vector-effect="none" points="270.804,698.767 270.804,818.767 " />
<polyline fill="none" vector-effect="none" points="270.804,698.767 338.304,698.767 " />
<polyline fill="none" vector-effect="none" points="338.304,578.767 338.304,698.767 " />
<polyline fill="none" vector-effect="none" points="270.804,578.767 338.304,578.767 " />
<polyline fill="none" vector-effect="none" points="270.804,458.767 270.804,578.767 " />
<polyline fill="none" vector-effect="none" points="270.804,458.767 338.304,458.767 " />
<polyline fill="none" vector-effect="none" points="338.304,338.767 338.304,458.767 " />
<polyline fill="none" vector-effect="none" points="270.804,338.767 338.304,338.767 " />
<polyline fill="none" vector-effect="none" points="270.804,218.767 270.804,338.767 " />
<polyline fill="none" vector-effect="none" points="3183.8,218.767 270.804,218.767 " />
<polyline fill="none" vector-effect="none" points="3183.8,218.767 3183.8,338.767 " />
<polyline fill="none" vector-effect="none" points="3183.8,338.767 3116.3,338.767 " />
<polyline fill="none" vector-effect="none" points="3116.3,458.767 3116.3,338.767 " />
<polyline fill="none" vector-effect="none" points="3183.8,458.767 3116.3,458.767 " />
<polyline fill="none" vector-effect="none" points="3183.8,458.767 3183.8,578.767 " />
<polyline fill="none" vector-effect="none" points="3183.8,578.767 3116.3,578.767 " />
<polyline fill="none" vector-effect="none" points="3116.3,698.767 3116.3,578.767 " />
<polyline fill="none" vector-effect="none" points="3183.8,698.767 3116.3,698.767 " />
<polyline fill="none" vector-effect="none" points="3183.8,698.767 3183.8,818.767 " />
<polyline fill="none" vector-effect="none" points="2918.99,818.767 2918.99,751.267 " />
<polyline fill="none" vector-effect="none" points="2654.17,751.267 2918.99,751.267 " />
<polyline fill="none" vector-effect="none" points="2124.53,818.767 1859.71,818.767 " />
<polyline fill="none" vector-effect="none" points="535.622,818.767 535.622,751.267 " />
<polyline fill="none" vector-effect="none" points="1594.89,751.267 1859.71,751.267 " />
<polyline fill="none" vector-effect="none" points="1859.71,818.767 1859.71,751.267 " />
<polyline fill="none" vector-effect="none" points="1594.89,818.767 1594.89,751.267 " />
<polyline fill="none" vector-effect="none" points="2654.17,818.767 2389.35,818.767 " />
<polyline fill="none" vector-effect="none" points="800.44,818.767 800.44,751.267 " />
<polyline fill="none" vector-effect="none" points="535.622,751.267 800.44,751.267 " />
<polyline fill="none" vector-effect="none" points="3183.8,818.767 2918.99,818.767 " />
<polyline fill="none" vector-effect="none" points="2389.35,818.767 2389.35,751.267 " />
<polyline fill="none" vector-effect="none" points="2654.17,818.767 2654.17,751.267 " />
<polyline fill="none" vector-effect="none" points="2124.53,751.267 2389.35,751.267 " />
<polyline fill="none" vector-effect="none" points="1330.08,818.767 1330.08,751.267 " />
<polyline fill="none" vector-effect="none" points="1065.26,751.267 1330.08,751.267 " />
<polyline fill="none" vector-effect="none" points="3258.8,698.767 3258.8,818.767 " />
<polyline fill="none" vector-effect="none" points="3258.8,698.767 3326.3,698.767 " />
<polyline fill="none" vector-effect="none" points="3326.3,698.767 3326.3,578.767 " />
<polyline fill="none" vector-effect="none" points="3258.8,578.767 3326.3,578.767 " />
<polyline fill="none" vector-effect="none" points="3258.8,458.767 3258.8,578.767 " />
<polyline fill="none" vector-effect="none" points="3258.8,458.767 3326.3,458.767 " />
<polyline fill="none" vector-effect="none" points="3326.3,458.767 3326.3,338.767 " />
<polyline fill="none" vector-effect="none" points="3258.8,338.767 3326.3,338.767 " />
<polyline fill="none" vector-effect="none" points="3258.8,218.767 3258.8,338.767 " />
<polyline fill="none" vector-effect="none" points="3258.8,218.767 6171.8,218.767 " />
<polyline fill="none" vector-effect="none" points="6171.8,218.767 6171.8,338.767 " />
<polyline fill="none" vector-effect="none" points="6171.8,338.767 6104.3,338.767 " />
<polyline fill="none" vector-effect="none" points="6104.3,338.767 6104.3,458.767 " />
<polyline fill="none" vector-effect="none" points="6171.8,458.767 6104.3,458.767 " />
<polyline fill="none" vector-effect="none" points="6171.8,458.767 6171.8,578.767 " />
<polyline fill="none" vector-effect="none" points="6171.8,578.767 6104.3,578.767 " />
<polyline fill="none" vector-effect="none" points="6104.3,578.767 6104.3,698.767 " />
<polyline fill="none" vector-effect="none" points="6171.8,698.767 6104.3,698.767 " />
<polyline fill="none" vector-effect="none" points="5906.99,818.767 5906.99,751.267 " />
<polyline fill="none" vector-effect="none" points="5906.99,751.267 5642.17,751.267 " />
<polyline fill="none" vector-effect="none" points="5377.35,818.767 5642.17,818.767 " />
<polyline fill="none" vector-effect="none" points="5377.35,818.767 5377.35,751.267 " />
<polyline fill="none" vector-effect="none" points="5112.53,818.767 5112.53,751.267 " />
<polyline fill="none" vector-effect="none" points="4847.71,818.767 4847.71,751.267 " />
<polyline fill="none" vector-effect="none" points="4847.71,751.267 4582.89,751.267 " />
<polyline fill="none" vector-effect="none" points="4582.89,818.767 4582.89,751.267 " />
<polyline fill="none" vector-effect="none" points="4318.08,818.767 4318.08,751.267 " />
<polyline fill="none" vector-effect="none" points="4318.08,751.267 4053.26,751.267 " />
<polyline fill="none" vector-effect="none" points="4053.26,818.767 4053.26,751.267 " />
<polyline fill="none" vector-effect="none" points="3788.44,818.767 3788.44,751.267 " />
<polyline fill="none" vector-effect="none" points="5377.35,751.267 5112.53,751.267 " />
<polyline fill="none" vector-effect="none" points="3258.8,818.767 3523.62,818.767 " />
<polyline fill="none" vector-effect="none" points="5642.17,818.767 5642.17,751.267 " />
<polyline fill="none" vector-effect="none" points="6171.8,698.767 6171.8,818.767 " />
<polyline fill="none" vector-effect="none" points="3788.44,751.267 3523.62,751.267 " />
<polyline fill="none" vector-effect="none" points="3523.62,818.767 3523.62,751.267 " />
<polyline fill="none" vector-effect="none" points="3788.44,818.767 4053.26,818.767 " />
<polyline fill="none" vector-effect="none" points="5906.99,818.767 6171.8,818.767 " />
<polyline fill="none" vector-effect="none" points="4847.71,818.767 5112.53,818.767 " />
<polyline fill="none" vector-effect="none" points="4318.08,818.767 4582.89,818.767 " />
<polyline fill="none" vector-effect="none" points="6233.3,2363.22 6165.8,2363.22 " />
<polyline fill="none" vector-effect="none" points="6165.8,2628.04 6165.8,2363.22 " />
<polyline fill="none" vector-effect="none" points="6233.3,2628.04 6233.3,2892.86 " />
<polyline fill="none" vector-effect="none" points="6233.3,2892.86 6165.8,2892.86 " />
<polyline fill="none" vector-effect="none" points="6165.8,3157.68 6165.8,2892.86 " />
<polyline fill="none" vector-effect="none" points="6233.3,3157.68 6165.8,3157.68 " />
<polyline fill="none" vector-effect="none" points="6233.3,3157.68 6233.3,3422.49 " />
<polyline fill="none" vector-effect="none" points="6233.3,3422.49 6165.8,3422.49 " />
<polyline fill="none" vector-effect="none" points="6165.8,3687.31 6165.8,3422.49 " />
<polyline fill="none" vector-effect="none" points="6233.3,3687.31 6165.8,3687.31 " />
<polyline fill="none" vector-effect="none" points="6233.3,3952.13 6165.8,3952.13 " />
<polyline fill="none" vector-effect="none" points="6165.8,4216.95 6165.8,3952.13 " />
<polyline fill="none" vector-effect="none" points="6233.3,4216.95 6165.8,4216.95 " />
<polyline fill="none" vector-effect="none" points="6233.3,4216.95 6233.3,4481.77 " />
<polyline fill="none" vector-effect="none" points="6113.3,4481.77 6233.3,4481.77 " />
<polyline fill="none" vector-effect="none" points="6113.3,4481.77 6113.3,4414.27 " />
<polyline fill="none" vector-effect="none" points="5993.3,4414.27 6113.3,4414.27 " />
<polyline fill="none" vector-effect="none" points="5993.3,4481.77 5993.3,4414.27 " />
<polyline fill="none" vector-effect="none" points="5873.3,4481.77 5993.3,4481.77 " />
<polyline fill="none" vector-effect="none" points="5873.3,4481.77 5873.3,4414.27 " />
<polyline fill="none" vector-effect="none" points="5753.3,4414.27 5873.3,4414.27 " />
<polyline fill="none" vector-effect="none" points="5753.3,4481.77 5753.3,4414.27 " />
<polyline fill="none" vector-effect="none" points="5633.3,4481.77 5753.3,4481.77 " />
<polyline fill="none" vector-effect="none" points="5633.3,1568.77 5633.3,4481.77 " />
<polyline fill="none" vector-effect="none" points="5633.3,1568.77 5753.3,1568.77 " />
<polyline fill="none" vector-effect="none" points="5753.3,1568.77 5753.3,1636.27 " />
<polyline fill="none" vector-effect="none" points="5873.3,1636.27 5753.3,1636.27 " />
<polyline fill="none" vector-effect="none" points="5873.3,1568.77 5873.3,1636.27 " />
<polyline fill="none" vector-effect="none" points="5873.3,1568.77 5993.3,1568.77 " />
<polyline fill="none" vector-effect="none" points="5993.3,1568.77 5993.3,1636.27 " />
<polyline fill="none" vector-effect="none" points="6113.3,1636.27 5993.3,1636.27 " />
<polyline fill="none" vector-effect="none" points="6113.3,1568.77 6113.3,1636.27 " />
<polyline fill="none" vector-effect="none" points="6113.3,1568.77 6233.3,1568.77 " />
<polyline fill="none" vector-effect="none" points="6233.3,1568.77 6233.3,1833.58 " />
<polyline fill="none" vector-effect="none" points="6233.3,1833.58 6165.8,1833.58 " />
<polyline fill="none" vector-effect="none" points="6165.8,2098.4 6165.8,1833.58 " />
<polyline fill="none" vector-effect="none" points="6233.3,2098.4 6165.8,2098.4 " />
<polyline fill="none" vector-effect="none" points="6233.3,2098.4 6233.3,2363.22 " />
<polyline fill="none" vector-effect="none" points="6233.3,2628.04 6165.8,2628.04 " />
<polyline fill="none" vector-effect="none" points="6233.3,3687.31 6233.3,3952.13 " />
<polyline fill="none" vector-effect="none" points="6908.3,2628.04 6908.3,2892.86 " />
<polyline fill="none" vector-effect="none" points="6908.3,3687.31 6908.3,3952.13 " />
<polyline fill="none" vector-effect="none" points="6308.3,1568.77 6308.3,4481.77 " />
<polyline fill="none" vector-effect="none" points="6548.3,1568.77 6668.3,1568.77 " />
<polyline fill="none" vector-effect="none" points="6908.3,4216.95 6908.3,4481.77 " />
<polyline fill="none" vector-effect="none" points="6788.3,4481.77 6788.3,4414.27 " />
<polyline fill="none" vector-effect="none" points="6548.3,4481.77 6668.3,4481.77 " />
<polyline fill="none" vector-effect="none" points="6428.3,4414.27 6548.3,4414.27 " />
<polyline fill="none" vector-effect="none" points="6908.3,2098.4 6908.3,2363.22 " />
<polyline fill="none" vector-effect="none" points="6908.3,3687.31 6840.8,3687.31 " />
<polyline fill="none" vector-effect="none" points="6308.3,1568.77 6428.3,1568.77 " />
<polyline fill="none" vector-effect="none" points="6840.8,2628.04 6840.8,2363.22 " />
<polyline fill="none" vector-effect="none" points="6908.3,2363.22 6840.8,2363.22 " />
<polyline fill="none" vector-effect="none" points="6908.3,2628.04 6840.8,2628.04 " />
<polyline fill="none" vector-effect="none" points="6840.8,3157.68 6840.8,2892.86 " />
<polyline fill="none" vector-effect="none" points="6908.3,3157.68 6908.3,3422.49 " />
<polyline fill="none" vector-effect="none" points="6908.3,3157.68 6840.8,3157.68 " />
<polyline fill="none" vector-effect="none" points="6908.3,3422.49 6840.8,3422.49 " />
<polyline fill="none" vector-effect="none" points="6548.3,4481.77 6548.3,4414.27 " />
<polyline fill="none" vector-effect="none" points="6428.3,4481.77 6428.3,4414.27 " />
<polyline fill="none" vector-effect="none" points="6840.8,4216.95 6840.8,3952.13 " />
<polyline fill="none" vector-effect="none" points="6908.3,4216.95 6840.8,4216.95 " />
<polyline fill="none" vector-effect="none" points="6548.3,1636.27 6428.3,1636.27 " />
<polyline fill="none" vector-effect="none" points="6788.3,1568.77 6788.3,1636.27 " />
<polyline fill="none" vector-effect="none" points="6668.3,1568.77 6668.3,1636.27 " />
<polyline fill="none" vector-effect="none" points="6668.3,4414.27 6788.3,4414.27 " />
<polyline fill="none" vector-effect="none" points="6788.3,4481.77 6908.3,4481.77 " />
<polyline fill="none" vector-effect="none" points="6668.3,4481.77 6668.3,4414.27 " />
<polyline fill="none" vector-effect="none" points="6840.8,3687.31 6840.8,3422.49 " />
<polyline fill="none" vector-effect="none" points="6908.3,1833.58 6840.8,1833.58 " />
<polyline fill="none" vector-effect="none" points="6908.3,2098.4 6840.8,2098.4 " />
<polyline fill="none" vector-effect="none" points="6908.3,1568.77 6908.3,1833.58 " />
<polyline fill="none" vector-effect="none" points="6840.8,2098.4 6840.8,1833.58 " />
<polyline fill="none" vector-effect="none" points="6908.3,2892.86 6840.8,2892.86 " />
<polyline fill="none" vector-effect="none" points="6788.3,1568.77 6908.3,1568.77 " />
<polyline fill="none" vector-effect="none" points="6788.3,1636.27 6668.3,1636.27 " />
<polyline fill="none" vector-effect="none" points="6548.3,1568.77 6548.3,1636.27 " />
<polyline fill="none" vector-effect="none" points="6428.3,1568.77 6428.3,1636.27 " />
<polyline fill="none" vector-effect="none" points="6908.3,3952.13 6840.8,3952.13 " />
<polyline fill="none" vector-effect="none" points="6308.3,4481.77 6428.3,4481.77 " />
</g>

<g fill="none" stroke="#000000" stroke-opacity="1" stroke-width="1" stroke-linecap="square" stroke-linejoin="bevel" transform="matrix(1,0,0,1,0,0)"
font-family="Arial" font-size="12" font-weight="400" font-style="normal" 
>
</g>
</g>
</svg>
