<?xml version="1.0" encoding="UTF-8"?>
<svg width="457.2mm" height="457.2mm" version="1.2" viewBox="0 0 5400 5400" xmlns="http://www.w3.org/2000/svg" xmlns:cc="http://creativecommons.org/ns#" xmlns:dc="http://purl.org/dc/elements/1.1/" xmlns:rdf="http://www.w3.org/1999/02/22-rdf-syntax-ns#">
 <metadata>
  <rdf:RDF>
   <cc:Work rdf:about="">
    <dc:format>image/svg+xml</dc:format>
    <dc:type rdf:resource="http://purl.org/dc/dcmitype/StillImage"/>
    <dc:title/>
   </cc:Work>
  </rdf:RDF>
 </metadata>
 <g fill-rule="evenodd" font-family="Arial" font-size="12" font-weight="400" stroke-linecap="square" stroke-linejoin="bevel" stroke-width=".3">
  <g fill="#fff">
   <rect width="5400" height="5400" stroke-width=".3"/>
  </g>
  <g fill="none" stroke="#000" stroke-linecap="round" stroke-linejoin="bevel">
   <polyline points="2186.5 2273.3 2186.5 2345.3"/>
   <polyline points="2186.5 2345.3 2788 2345.3"/>
   <polyline points="2788 2273.3 2788 2345.3"/>
   <polyline points="2519.5 2273.3 2788 2273.3"/>
   <polyline points="2519.5 2095.6 2519.5 2273.3"/>
   <polyline points="2519.5 2095.6 2447.5 2095.6"/>
   <polyline points="2447.5 2095.6 2447.5 2273.3"/>
   <polyline points="2186.5 2273.3 2447.5 2273.3"/>
   <polyline points="3604 2273.3 3604 2345.3"/>
   <polyline points="3604 2345.3 4085.5 2345.3"/>
   <polyline points="4085.5 2273.3 4085.5 2345.3"/>
   <polyline points="3944.5 2273.3 4085.5 2273.3"/>
   <polyline points="3944.5 2095.6 3944.5 2273.3"/>
   <polyline points="3944.5 2095.6 3872.5 2095.6"/>
   <polyline points="3872.5 2095.6 3872.5 2273.3"/>
   <polyline points="3604 2273.3 3872.5 2273.3"/>
   <polyline points="1735 2038.5 1735 2273.3"/>
   <polyline points="1661.5 2273.3 1735 2273.3"/>
   <polyline points="1661.5 2273.3 1661.5 2345.3"/>
   <polyline points="1661.5 2345.3 1735 2345.3"/>
   <polyline points="1735 2345.3 1735 2578.5"/>
   <polyline points="1807 2578.5 1735 2578.5"/>
   <polyline points="1807 2345.3 1807 2578.5"/>
   <polyline points="1807 2345.3 1918 2345.3"/>
   <polyline points="1918 2273.3 1918 2345.3"/>
   <polyline points="1807 2273.3 1918 2273.3"/>
   <polyline points="1807 2038.5 1807 2273.3"/>
   <polyline points="1807 2038.5 1735 2038.5"/>
   <polyline points="3160 2038.5 3160 2273.3"/>
   <polyline points="3064 2273.3 3160 2273.3"/>
   <polyline points="3064 2273.3 3064 2345.3"/>
   <polyline points="3064 2345.3 3160 2345.3"/>
   <polyline points="3160 2345.3 3160 2578.5"/>
   <polyline points="3232 2578.5 3160 2578.5"/>
   <polyline points="3232 2345.3 3232 2578.5"/>
   <polyline points="3232 2345.3 3328 2345.3"/>
   <polyline points="3328 2273.3 3328 2345.3"/>
   <polyline points="3232 2273.3 3328 2273.3"/>
   <polyline points="3232 2038.5 3232 2273.3"/>
   <polyline points="3232 2038.5 3160 2038.5"/>
   <polyline points="3872.5 570.65 3872.5 818.82"/>
   <polyline points="3944.5 818.82 3872.5 818.82"/>
   <polyline points="3944.5 570.65 3944.5 818.82"/>
   <polyline points="3944.5 570.65 3872.5 570.65"/>
   <polyline points="3872.5 1079 3872.5 1327.2"/>
   <polyline points="3944.5 1327.2 3872.5 1327.2"/>
   <polyline points="3944.5 1079 3944.5 1327.2"/>
   <polyline points="3944.5 1079 3872.5 1079"/>
   <polyline points="3872.5 1587.3 3872.5 1835.5"/>
   <polyline points="3944.5 1835.5 3872.5 1835.5"/>
   <polyline points="3944.5 1587.3 3944.5 1835.5"/>
   <polyline points="3944.5 1587.3 3872.5 1587.3"/>
   <polyline points="2447.5 570.65 2447.5 818.82"/>
   <polyline points="2519.5 818.82 2447.5 818.82"/>
   <polyline points="2519.5 570.65 2519.5 818.82"/>
   <polyline points="2519.5 570.65 2447.5 570.65"/>
   <polyline points="2447.5 1079 2447.5 1327.2"/>
   <polyline points="2519.5 1327.2 2447.5 1327.2"/>
   <polyline points="2519.5 1079 2519.5 1327.2"/>
   <polyline points="2519.5 1079 2447.5 1079"/>
   <polyline points="2447.5 1587.3 2447.5 1835.5"/>
   <polyline points="2519.5 1835.5 2447.5 1835.5"/>
   <polyline points="2519.5 1587.3 2519.5 1835.5"/>
   <polyline points="2519.5 1587.3 2447.5 1587.3"/>
   <polyline points="3863.8 4070.3 4123.7 4070.3"/>
   <polyline points="4123.7 3998.3 4123.7 4070.3"/>
   <polyline points="3863.8 3998.3 4123.7 3998.3"/>
   <polyline points="3863.8 3998.3 3863.8 4070.3"/>
   <polyline points="3332 4070.3 3591.9 4070.3"/>
   <polyline points="3591.9 3998.3 3591.9 4070.3"/>
   <polyline points="3332 3998.3 3591.9 3998.3"/>
   <polyline points="3332 3998.3 3332 4070.3"/>
   <polyline points="2800.2 4070.3 3060.1 4070.3"/>
   <polyline points="3060.1 3998.3 3060.1 4070.3"/>
   <polyline points="2800.2 3998.3 3060.1 3998.3"/>
   <polyline points="2800.2 3998.3 2800.2 4070.3"/>
   <polyline points="2268.4 4070.3 2528.3 4070.3"/>
   <polyline points="2528.3 3998.3 2528.3 4070.3"/>
   <polyline points="2268.4 3998.3 2528.3 3998.3"/>
   <polyline points="2268.4 3998.3 2268.4 4070.3"/>
   <polyline points="4234 2345.3 4370.5 2345.3"/>
   <polyline points="4370.5 2273.3 4370.5 2345.3"/>
   <polyline points="4234 2273.3 4370.5 2273.3"/>
   <polyline points="4234 2273.3 4234 2345.3"/>
   <polyline points="1136.5 2345.3 1393 2345.3"/>
   <polyline points="1393 2273.3 1393 2345.3"/>
   <polyline points="1136.5 2273.3 1393 2273.3"/>
   <polyline points="1136.5 2273.3 1136.5 2345.3"/>
   <polyline points="611.54 2345.3 868.04 2345.3"/>
   <polyline points="868.04 2273.3 868.04 2345.3"/>
   <polyline points="611.54 2273.3 868.04 2273.3"/>
   <polyline points="611.54 2273.3 611.54 2345.3"/>
   <polyline points="3160 3765.2 3160 3995.3"/>
   <polyline points="3232 3995.3 3160 3995.3"/>
   <polyline points="3232 3765.2 3232 3995.3"/>
   <polyline points="3232 3765.2 3160 3765.2"/>
   <polyline points="3160 1562.8 3160 1794.6"/>
   <polyline points="3232 1794.6 3160 1794.6"/>
   <polyline points="3232 1562.8 3232 1794.6"/>
   <polyline points="3232 1562.8 3160 1562.8"/>
   <polyline points="3160 1087.2 3160 1319"/>
   <polyline points="3232 1319 3160 1319"/>
   <polyline points="3232 1087.2 3232 1319"/>
   <polyline points="3232 1087.2 3160 1087.2"/>
   <polyline points="3160 611.48 3160 843.32"/>
   <polyline points="3232 843.32 3160 843.32"/>
   <polyline points="3232 611.48 3232 843.32"/>
   <polyline points="3232 611.48 3160 611.48"/>
   <polyline points="3160 4073.3 3160 4307.9"/>
   <polyline points="3232 4307.9 3160 4307.9"/>
   <polyline points="3232 4073.3 3232 4307.9"/>
   <polyline points="3232 4073.3 3160 4073.3"/>
   <polyline points="3160 4554.5 3160 4789.1"/>
   <polyline points="3232 4789.1 3160 4789.1"/>
   <polyline points="3232 4554.5 3232 4789.1"/>
   <polyline points="3232 4554.5 3160 4554.5"/>
   <polyline points="3160 3292.9 3160 3523"/>
   <polyline points="3232 3523 3160 3523"/>
   <polyline points="3232 3292.9 3232 3523"/>
   <polyline points="3232 3292.9 3160 3292.9"/>
   <polyline points="3160 2820.6 3160 3050.8"/>
   <polyline points="3232 3050.8 3160 3050.8"/>
   <polyline points="3232 2820.6 3232 3050.8"/>
   <polyline points="3232 2820.6 3160 2820.6"/>
   <polyline points="3160 5035.7 3160 5270.3"/>
   <polyline points="3232 5270.3 3160 5270.3"/>
   <polyline points="3232 5035.7 3232 5270.3"/>
   <polyline points="3232 5035.7 3160 5035.7"/>
   <polyline points="1735 1562.8 1735 1794.6"/>
   <polyline points="1807 1794.6 1735 1794.6"/>
   <polyline points="1807 1562.8 1807 1794.6"/>
   <polyline points="1807 1562.8 1735 1562.8"/>
   <polyline points="1735 1087.2 1735 1319"/>
   <polyline points="1807 1319 1735 1319"/>
   <polyline points="1807 1087.2 1807 1319"/>
   <polyline points="1807 1087.2 1735 1087.2"/>
   <polyline points="1735 611.48 1735 843.32"/>
   <polyline points="1807 843.32 1735 843.32"/>
   <polyline points="1807 611.48 1807 843.32"/>
   <polyline points="1807 611.48 1735 611.48"/>
   <polyline points="1735 4073.3 1735 4307.9"/>
   <polyline points="1807 4307.9 1735 4307.9"/>
   <polyline points="1807 4070.3 1807 4307.9"/>
   <polyline points="1807 4070.3 1996.4 4070.3"/>
   <polyline points="1996.4 3998.3 1996.4 4070.3"/>
   <polyline points="1807 3998.3 1996.4 3998.3"/>
   <polyline points="1807 3765.2 1807 3998.3"/>
   <polyline points="1807 3765.2 1735 3765.2"/>
   <polyline points="1735 3765.2 1735 3995.3"/>
   <polyline points="1736.5 3995.3 1735 3995.3"/>
   <polyline points="1736.5 3995.3 1736.5 4073.3"/>
   <polyline points="1736.5 4073.3 1735 4073.3"/>
   <polyline points="1735 4554.5 1735 4789.1"/>
   <polyline points="1807 4789.1 1735 4789.1"/>
   <polyline points="1807 4554.5 1807 4789.1"/>
   <polyline points="1807 4554.5 1735 4554.5"/>
   <polyline points="1735 3292.9 1735 3523"/>
   <polyline points="1807 3523 1735 3523"/>
   <polyline points="1807 3292.9 1807 3523"/>
   <polyline points="1807 3292.9 1735 3292.9"/>
   <polyline points="1735 2820.6 1735 3050.8"/>
   <polyline points="1807 3050.8 1735 3050.8"/>
   <polyline points="1807 2820.6 1807 3050.8"/>
   <polyline points="1807 2820.6 1735 2820.6"/>
   <polyline points="3944.5 310.48 3872.5 310.48"/>
   <polyline points="3944.5 132.82 3944.5 310.48"/>
   <polyline points="4085.5 132.82 3944.5 132.82"/>
   <polyline points="4085.5 132.82 4085.5 59.317"/>
   <polyline points="4085.5 59.317 4234 59.317"/>
   <polyline points="4234 132.82 4234 59.317"/>
   <polyline points="4370.5 132.82 4234 132.82"/>
   <polyline points="4370.5 132.82 4370.5 59.317"/>
   <polyline points="4370.5 59.317 4519 59.317"/>
   <polyline points="4519 132.82 4519 59.317"/>
   <polyline points="4585 132.82 4519 132.82"/>
   <polyline points="4585 367.65 4585 132.82"/>
   <polyline points="4585 367.65 4658.5 367.65"/>
   <polyline points="4658.5 611.48 4658.5 367.65"/>
   <polyline points="4585 611.48 4658.5 611.48"/>
   <polyline points="4585 843.32 4585 611.48"/>
   <polyline points="4585 843.32 4658.5 843.32"/>
   <polyline points="4658.5 1087.2 4658.5 843.32"/>
   <polyline points="4585 1087.2 4658.5 1087.2"/>
   <polyline points="4585 1319 4585 1087.2"/>
   <polyline points="4585 1319 4658.5 1319"/>
   <polyline points="4658.5 1562.8 4658.5 1319"/>
   <polyline points="4585 1562.8 4658.5 1562.8"/>
   <polyline points="4585 1794.6 4585 1562.8"/>
   <polyline points="4585 1794.6 4658.5 1794.6"/>
   <polyline points="4658.5 2038.5 4658.5 1794.6"/>
   <polyline points="4585 2038.5 4658.5 2038.5"/>
   <polyline points="4585 2273.3 4585 2038.5"/>
   <polyline points="4519 2273.3 4585 2273.3"/>
   <polyline points="4519 2273.3 4519 2345.3"/>
   <polyline points="4519 2345.3 4585 2345.3"/>
   <polyline points="4585 2578.5 4585 2345.3"/>
   <polyline points="4585 2578.5 4658.5 2578.5"/>
   <polyline points="4658.5 2820.6 4658.5 2578.5"/>
   <polyline points="4585 2820.6 4658.5 2820.6"/>
   <polyline points="4585 3050.8 4585 2820.6"/>
   <polyline points="4585 3050.8 4658.5 3050.8"/>
   <polyline points="4658.5 3292.9 4658.5 3050.8"/>
   <polyline points="4585 3292.9 4658.5 3292.9"/>
   <polyline points="4585 3523 4585 3292.9"/>
   <polyline points="4585 3523 4658.5 3523"/>
   <polyline points="4658.5 3765.2 4658.5 3523"/>
   <polyline points="4585 3765.2 4658.5 3765.2"/>
   <polyline points="4585 3998.3 4585 3765.2"/>
   <polyline points="4395.6 3998.3 4585 3998.3"/>
   <polyline points="4395.6 3998.3 4395.6 4070.3"/>
   <polyline points="4395.6 4070.3 4585 4070.3"/>
   <polyline points="4585 4307.9 4585 4070.3"/>
   <polyline points="4585 4307.9 4658.5 4307.9"/>
   <polyline points="4658.5 4554.5 4658.5 4307.9"/>
   <polyline points="4585 4554.5 4658.5 4554.5"/>
   <polyline points="4585 4789.1 4585 4554.5"/>
   <polyline points="4585 4789.1 4658.5 4789.1"/>
   <polyline points="4658.5 5035.7 4658.5 4789.1"/>
   <polyline points="4585 5035.7 4658.5 5035.7"/>
   <polyline points="4585 5273.3 4585 5035.7"/>
   <polyline points="4392.4 5273.3 4585 5273.3"/>
   <polyline points="4392.4 5273.3 4392.4 5346.8"/>
   <polyline points="4117.3 5346.8 4392.4 5346.8"/>
   <polyline points="4117.3 5273.3 4117.3 5346.8"/>
   <polyline points="3854.2 5273.3 4117.3 5273.3"/>
   <polyline points="3854.2 5273.3 3854.2 5346.8"/>
   <polyline points="3579.1 5346.8 3854.2 5346.8"/>
   <polyline points="3579.1 5273.3 3579.1 5346.8"/>
   <polyline points="3316 5273.3 3579.1 5273.3"/>
   <polyline points="3316 5273.3 3316 5346.8"/>
   <polyline points="3040.8 5346.8 3316 5346.8"/>
   <polyline points="3040.8 5273.3 3040.8 5346.8"/>
   <polyline points="2777.7 5273.3 3040.8 5273.3"/>
   <polyline points="2777.7 5273.3 2777.7 5346.8"/>
   <polyline points="2502.6 5346.8 2777.7 5346.8"/>
   <polyline points="2502.6 5273.3 2502.6 5346.8"/>
   <polyline points="2239.5 5273.3 2502.6 5273.3"/>
   <polyline points="2239.5 5273.3 2239.5 5346.8"/>
   <polyline points="1964.4 5346.8 2239.5 5346.8"/>
   <polyline points="1964.4 5273.3 1964.4 5346.8"/>
   <polyline points="1807 5273.3 1964.4 5273.3"/>
   <polyline points="1807 5035.7 1807 5273.3"/>
   <polyline points="1807 5035.7 1735 5035.7"/>
   <polyline points="1735 5035.7 1735 5273.3"/>
   <polyline points="1701.2 5273.3 1735 5273.3"/>
   <polyline points="1701.2 5273.3 1701.2 5346.8"/>
   <polyline points="1426.1 5346.8 1701.2 5346.8"/>
   <polyline points="1426.1 5273.3 1426.1 5346.8"/>
   <polyline points="1163 5273.3 1426.1 5273.3"/>
   <polyline points="1163 5273.3 1163 5346.8"/>
   <polyline points="887.89 5346.8 1163 5346.8"/>
   <polyline points="887.89 5273.3 887.89 5346.8"/>
   <polyline points="624.77 5273.3 887.89 5273.3"/>
   <polyline points="624.77 5273.3 624.77 5346.8"/>
   <polyline points="349.66 5346.8 624.77 5346.8"/>
   <polyline points="349.66 5273.3 349.66 5346.8"/>
   <polyline points="157.04 5273.3 349.66 5273.3"/>
   <polyline points="157.04 5010.1 157.04 5273.3"/>
   <polyline points="157.04 5010.1 83.537 5010.1"/>
   <polyline points="83.537 4738 83.537 5010.1"/>
   <polyline points="157.04 4738 83.537 4738"/>
   <polyline points="157.04 4477.8 157.04 4738"/>
   <polyline points="157.04 4477.8 83.537 4477.8"/>
   <polyline points="83.537 4205.6 83.537 4477.8"/>
   <polyline points="157.04 4205.6 83.537 4205.6"/>
   <polyline points="157.04 3945.4 157.04 4205.6"/>
   <polyline points="157.04 3945.4 83.537 3945.4"/>
   <polyline points="83.537 3673.2 83.537 3945.4"/>
   <polyline points="157.04 3673.2 83.537 3673.2"/>
   <polyline points="157.04 3413 157.04 3673.2"/>
   <polyline points="157.04 3413 83.537 3413"/>
   <polyline points="83.537 3140.9 83.537 3413"/>
   <polyline points="157.04 3140.9 83.537 3140.9"/>
   <polyline points="157.04 2880.7 157.04 3140.9"/>
   <polyline points="157.04 2880.7 83.537 2880.7"/>
   <polyline points="83.537 2608.5 83.537 2880.7"/>
   <polyline points="157.04 2608.5 83.537 2608.5"/>
   <polyline points="157.04 2345.3 157.04 2608.5"/>
   <polyline points="157.04 2345.3 343.04 2345.3"/>
   <polyline points="343.04 2273.3 343.04 2345.3"/>
   <polyline points="157.04 2273.3 343.04 2273.3"/>
   <polyline points="157.04 2038.5 157.04 2273.3"/>
   <polyline points="157.04 2038.5 83.537 2038.5"/>
   <polyline points="83.537 1794.6 83.537 2038.5"/>
   <polyline points="157.04 1794.6 83.537 1794.6"/>
   <polyline points="157.04 1562.8 157.04 1794.6"/>
   <polyline points="157.04 1562.8 83.537 1562.8"/>
   <polyline points="83.537 1319 83.537 1562.8"/>
   <polyline points="157.04 1319 83.537 1319"/>
   <polyline points="157.04 1087.2 157.04 1319"/>
   <polyline points="157.04 1087.2 83.537 1087.2"/>
   <polyline points="83.537 843.32 83.537 1087.2"/>
   <polyline points="157.04 843.32 83.537 843.32"/>
   <polyline points="157.04 611.48 157.04 843.32"/>
   <polyline points="157.04 611.48 83.537 611.48"/>
   <polyline points="83.537 367.65 83.537 611.48"/>
   <polyline points="157.04 367.65 83.537 367.65"/>
   <polyline points="157.04 132.82 157.04 367.65"/>
   <polyline points="343.04 132.82 157.04 132.82"/>
   <polyline points="343.04 132.82 343.04 59.317"/>
   <polyline points="343.04 59.317 611.54 59.317"/>
   <polyline points="611.54 132.82 611.54 59.317"/>
   <polyline points="868.04 132.82 611.54 132.82"/>
   <polyline points="868.04 132.82 868.04 59.317"/>
   <polyline points="868.04 59.317 1136.5 59.317"/>
   <polyline points="1136.5 132.82 1136.5 59.317"/>
   <polyline points="1393 132.82 1136.5 132.82"/>
   <polyline points="1393 132.82 1393 59.317"/>
   <polyline points="1393 59.317 1661.5 59.317"/>
   <polyline points="1661.5 132.82 1661.5 59.317"/>
   <polyline points="1735 132.82 1661.5 132.82"/>
   <polyline points="1735 132.82 1735 367.65"/>
   <polyline points="1807 367.65 1735 367.65"/>
   <polyline points="1807 132.82 1807 367.65"/>
   <polyline points="1918 132.82 1807 132.82"/>
   <polyline points="1918 132.82 1918 59.317"/>
   <polyline points="1918 59.317 2186.5 59.317"/>
   <polyline points="2186.5 132.82 2186.5 59.317"/>
   <polyline points="2447.5 132.82 2186.5 132.82"/>
   <polyline points="2447.5 132.82 2447.5 310.48"/>
   <polyline points="2519.5 310.48 2447.5 310.48"/>
   <polyline points="2519.5 132.82 2519.5 310.48"/>
   <polyline points="2788 132.82 2519.5 132.82"/>
   <polyline points="2788 132.82 2788 59.317"/>
   <polyline points="2788 59.317 3064 59.317"/>
   <polyline points="3064 132.82 3064 59.317"/>
   <polyline points="3160 132.82 3064 132.82"/>
   <polyline points="3160 132.82 3160 367.65"/>
   <polyline points="3232 367.65 3160 367.65"/>
   <polyline points="3232 132.82 3232 367.65"/>
   <polyline points="3328 132.82 3232 132.82"/>
   <polyline points="3328 132.82 3328 59.317"/>
   <polyline points="3328 59.317 3604 59.317"/>
   <polyline points="3604 132.82 3604 59.317"/>
   <polyline points="3872.5 132.82 3604 132.82"/>
   <polyline points="3872.5 132.82 3872.5 310.48"/>
   <polyline points="5129.4 881.7 5129.4 1156.9"/>
   <polyline points="5202.9 1156.9 5129.4 1156.9"/>
   <polyline points="5202.9 1432 5202.9 1156.9"/>
   <polyline points="5202.9 1432 5129.4 1432"/>
   <polyline points="5129.4 1432 5129.4 1707.2"/>
   <polyline points="5202.9 1707.2 5129.4 1707.2"/>
   <polyline points="5202.9 1982.4 5202.9 1707.2"/>
   <polyline points="5202.9 1982.4 5129.4 1982.4"/>
   <polyline points="5129.4 1982.4 5129.4 2257.5"/>
   <polyline points="5202.9 2257.5 5129.4 2257.5"/>
   <polyline points="5202.9 2532.7 5202.9 2257.5"/>
   <polyline points="5202.9 2532.7 5055.9 2532.7"/>
   <polyline points="5055.9 2604.7 5055.9 2532.7"/>
   <polyline points="5202.9 2604.7 5055.9 2604.7"/>
   <polyline points="5202.9 2853.7 5202.9 2604.7"/>
   <polyline points="5202.9 2853.7 5129.4 2853.7"/>
   <polyline points="5129.4 2853.7 5129.4 3102.7"/>
   <polyline points="5202.9 3102.7 5129.4 3102.7"/>
   <polyline points="5202.9 3351.7 5202.9 3102.7"/>
   <polyline points="5202.9 3351.7 5129.4 3351.7"/>
   <polyline points="5129.4 3351.7 5129.4 3600.7"/>
   <polyline points="5202.9 3600.7 5129.4 3600.7"/>
   <polyline points="5202.9 3849.7 5202.9 3600.7"/>
   <polyline points="5202.9 3849.7 5129.4 3849.7"/>
   <polyline points="5129.4 3849.7 5129.4 4098.7"/>
   <polyline points="5202.9 4098.7 5129.4 4098.7"/>
   <polyline points="5202.9 4347.7 5202.9 4098.7"/>
   <polyline points="5202.9 4347.7 5129.4 4347.7"/>
   <polyline points="5129.4 4347.7 5129.4 4596.7"/>
   <polyline points="5202.9 4596.7 5129.4 4596.7"/>
   <polyline points="5202.9 4845.7 5202.9 4596.7"/>
   <polyline points="5202.9 4845.7 5129.4 4845.7"/>
   <polyline points="5129.4 4845.7 5129.4 5094.7"/>
   <polyline points="5202.9 5094.7 5129.4 5094.7"/>
   <polyline points="5202.9 5343.7 5202.9 5094.7"/>
   <polyline points="5052.9 5343.7 5202.9 5343.7"/>
   <polyline points="5052.9 5343.7 5052.9 5270.2"/>
   <polyline points="5052.9 5270.2 4902.9 5270.2"/>
   <polyline points="4902.9 5343.7 4902.9 5270.2"/>
   <polyline points="4752.9 5343.7 4902.9 5343.7"/>
   <polyline points="4752.9 5343.7 4752.9 2604.7"/>
   <polyline points="4899.9 2604.7 4752.9 2604.7"/>
   <polyline points="4899.9 2604.7 4899.9 2532.7"/>
   <polyline points="4899.9 2532.7 4752.9 2532.7"/>
   <polyline points="4752.9 2532.7 4752.9 56.197"/>
   <polyline points="4752.9 56.197 4902.9 56.197"/>
   <polyline points="4902.9 56.197 4902.9 129.7"/>
   <polyline points="4902.9 129.7 5052.9 129.7"/>
   <polyline points="5052.9 56.197 5052.9 129.7"/>
   <polyline points="5052.9 56.197 5202.9 56.197"/>
   <polyline points="5202.9 331.36 5202.9 56.197"/>
   <polyline points="5202.9 331.36 5129.4 331.36"/>
   <polyline points="5129.4 331.36 5129.4 606.53"/>
   <polyline points="5202.9 606.53 5129.4 606.53"/>
   <polyline points="5202.9 881.7 5202.9 606.53"/>
   <polyline points="5202.9 881.7 5129.4 881.7"/>
  </g>
 </g>
</svg>
